<svg width="20" height="20" viewBox="0 0 20 20" fill="none" xmlns="http://www.w3.org/2000/svg">
  <rect x="0" y="0" width="20" height="20" rx="5" fill="currentColor"/>
  <path fill-rule="evenodd" clip-rule="evenodd" d="M4.12793 9.10938V10.7434L10.4381 10.7564L10.8104 9.12228L4.12793 9.10938ZM4.12793 5.83472V7.46878L11.1827 7.48168L11.2458 7.19638C11.4036 6.50908 10.8987 5.84772 10.2109 5.84772L4.12793 5.83472ZM10.0575 12.3904L10.4299 10.7564L14.4242 10.7629L13.8374 12.3969L10.0575 12.3904ZM10.8051 9.12198L11.1837 7.48798L16.8755 7.46838L16.2067 9.09588L10.8051 9.12198ZM4.12793 12.376V13.9748L9.68723 13.9877L10.0595 12.3537L4.12793 12.376ZM12.0572 15.6636H10.9024C10.0694 15.6636 9.46367 14.8466 9.67817 14.0231H12.6945L12.0572 15.6636Z" fill="currentColor"/>
</svg>

