<svg fill="none" height="36" viewBox="0 0 36 36" width="36" xmlns="http://www.w3.org/2000/svg" xmlns:xlink="http://www.w3.org/1999/xlink"><linearGradient id="a" gradientUnits="userSpaceOnUse" x1="4" x2="27.6608" y1="3.5" y2="36"><stop offset="0" stop-color="#4661eb"/><stop offset="1" stop-color="#5c2885"/></linearGradient><rect fill="url(#a)" height="36" rx="10" width="36"/><path d="m5.98938 24 .912-6.448h-1.632l.32-2.192h1.632l.112-.784c.224-1.808 1.408-2.672 3.40802-2.672.528 0 1.104.096 1.488.208l-.272 2.08c-.192-.08-.464-.096-.704-.096-.88 0-1.184.352-1.28002.912l-.048.352h1.87202l-.32 2.192h-1.85602l-.912 6.448zm5.71112 2.672 1.6-11.312h2.32l.176 1.552h.16c.56-1.088 1.664-1.712 2.848-1.712 1.888 0 3.152 1.376 3.152 3.76 0 3.2-1.68 5.2-3.968 5.2-1.328 0-2.4-.688-2.8-1.76h-.16l-.608 4.272zm3.744-7.2-.032.224c-.192 1.36.464 2.256 1.648 2.256 1.248 0 2.096-.992 2.096-2.608 0-1.2-.64-1.936-1.648-1.936-1.056 0-1.888.832-2.064 2.064zm6.3772 4.528 3.28-4.368-2.144-4.272h2.768l1.2161 2.8h.112l1.9679-2.8h2.7681l-3.184 4.384 2.08 4.256h-2.7201l-1.328-2.784h-.128l-2 2.784z" fill="#fff"/></svg>