<svg width="20" height="20" viewBox="0 0 20 20" fill="none" xmlns="http://www.w3.org/2000/svg">
<path d="M8.12501 5.31249C8.125 4.78304 7.97556 4.26435 7.69386 3.81606C7.41215 3.36778 7.00964 3.00811 6.5326 2.77843C6.05557 2.54875 5.52339 2.45838 4.99728 2.51772C4.47117 2.57706 3.97249 2.7837 3.5586 3.11387C3.14471 3.44404 2.83242 3.88433 2.65766 4.3841C2.48289 4.88388 2.45273 5.42283 2.57067 5.93897C2.6886 6.45512 2.94983 6.9275 3.3243 7.30177C3.69878 7.67605 4.1713 7.93702 4.68751 8.05468V11.9453C4.01333 12.099 3.41938 12.4956 3.01912 13.0594C2.61885 13.6233 2.44033 14.3148 2.51764 15.002C2.59496 15.6891 2.92269 16.3237 3.43825 16.7845C3.9538 17.2453 4.62104 17.5 5.31251 17.5C6.00398 17.5 6.67121 17.2453 7.18677 16.7845C7.70232 16.3237 8.03006 15.6891 8.10737 15.002C8.18468 14.3148 8.00616 13.6233 7.6059 13.0594C7.20563 12.4956 6.61169 12.099 5.93751 11.9453V8.05468C6.5582 7.91177 7.11225 7.56296 7.50944 7.06504C7.90664 6.56713 8.1236 5.94942 8.12501 5.31249ZM6.87501 14.6875C6.87501 14.9965 6.78337 15.2986 6.61168 15.5556C6.43999 15.8125 6.19596 16.0128 5.91045 16.1311C5.62494 16.2493 5.31077 16.2803 5.00768 16.22C4.70458 16.1597 4.42617 16.0109 4.20765 15.7923C3.98913 15.5738 3.84032 15.2954 3.78003 14.9923C3.71974 14.6892 3.75068 14.3751 3.86894 14.0895C3.98721 13.804 4.18748 13.56 4.44443 13.3883C4.70138 13.2166 5.00347 13.125 5.31251 13.125C5.72627 13.127 6.12251 13.2923 6.41509 13.5849C6.70767 13.8775 6.87295 14.2737 6.87501 14.6875ZM17.5 14.6875C17.5 15.2169 17.3506 15.7356 17.0689 16.1839C16.7872 16.6322 16.3846 16.9919 15.9076 17.2216C15.4306 17.4512 14.8984 17.5416 14.3723 17.4823C13.8462 17.4229 13.3475 17.2163 12.9336 16.8861C12.5197 16.5559 12.2074 16.1156 12.0327 15.6159C11.8579 15.1161 11.8277 14.5772 11.9457 14.061C12.0636 13.5449 12.3248 13.0725 12.6993 12.6982C13.0738 12.3239 13.5463 12.063 14.0625 11.9453V9.36718C14.0628 8.95668 13.9823 8.55013 13.8254 8.17077C13.6686 7.79141 13.4386 7.44667 13.1484 7.15624L11.25 5.2578V6.87499C11.25 7.04075 11.1842 7.19972 11.0669 7.31693C10.9497 7.43414 10.7908 7.49999 10.625 7.49999C10.4592 7.49999 10.3003 7.43414 10.1831 7.31693C10.0659 7.19972 10 7.04075 10 6.87499V3.74999C10 3.58423 10.0659 3.42526 10.1831 3.30805C10.3003 3.19084 10.4592 3.12499 10.625 3.12499H13.75C13.9158 3.12499 14.0747 3.19084 14.1919 3.30805C14.3092 3.42526 14.375 3.58423 14.375 3.74999C14.375 3.91575 14.3092 4.07472 14.1919 4.19193C14.0747 4.30914 13.9158 4.37499 13.75 4.37499H12.1328L14.0313 6.27343C14.4392 6.67842 14.7626 7.1605 14.9826 7.69163C15.2025 8.22275 15.3147 8.79231 15.3125 9.36718V11.9453C15.9332 12.0882 16.4872 12.437 16.8844 12.9349C17.2816 13.4329 17.4986 14.0506 17.5 14.6875Z" fill="currentColor"/>
</svg>
