<svg width="16" height="16" viewBox="0 0 16 16" fill="none" xmlns="http://www.w3.org/2000/svg">
<path d="M5.59253 5.37685L6.40814 5.84791V6.79004L5.59253 7.2611L4.77692 6.79004V5.84791L5.59253 5.37685ZM4.63964 12.5908L5.59253 11.638L6.54542 12.5908L5.59253 13.5437L4.63964 12.5908ZM5.59253 8.63392C5.75215 8.63392 5.90747 8.68129 6.04206 8.77012C6.17476 8.85895 6.2784 8.98492 6.33816 9.13351C6.39943 9.28106 6.41552 9.44349 6.38437 9.60019C6.35322 9.7569 6.27624 9.90083 6.16319 10.0137C6.05013 10.1268 5.90639 10.2035 5.74865 10.2347C5.5923 10.266 5.43017 10.25 5.28297 10.1887C5.13553 10.1276 5.0092 10.0247 4.91958 9.8926C4.83051 9.75962 4.78309 9.60312 4.78338 9.44307C4.78338 9.2288 4.86844 9.02315 5.01999 8.87241C5.17143 8.72117 5.37662 8.63609 5.59065 8.6358L5.59253 8.63392ZM2.01245 2.41588L3.74058 1.0996L4.06629 1H11.8725L12.1928 1.10498L13.9721 2.42127L14.1928 2.85464V13.0834L14.0448 13.4549L12.7446 14.8304L12.3516 15H3.81864L3.44987 14.8546L1.97476 13.4791L1.80249 13.0834V2.85464L2.01245 2.41588ZM2.87651 9.25303L4.07974 10.5828H4.09482V11.6595H3.60222L2.87544 10.852V12.8412L4.02214 13.9179H12.0975L13.0935 12.8654V10.7873L12.1056 11.6595H7.09886V10.5828H11.7287L13.1258 9.34186V7.33916L12.1379 8.214H7.10424V7.13728H11.7341L13.1312 5.89906V4.03634L12.1433 4.91386H3.63721L2.89966 4.16016V5.80754L4.10289 7.13728H4.11797V8.214H3.62537L2.89859 7.40646L2.87651 9.25303ZM11.6787 2.06595H4.24933L3.15377 2.9031L4.06898 3.83984H11.7137L12.7904 2.88156L11.6787 2.06595Z" fill="#0F0E0C"/>
</svg>
