<svg width="16" height="16" viewBox="0 0 16 16" fill="none" xmlns="http://www.w3.org/2000/svg">
<path d="M3.42308 11.4865H5.30769V10.4096H3.42308V11.4865Z" fill="#0F0E0C"/>
<path d="M5.30769 9.33264H3.42308V8.25572H5.30769V9.33264Z" fill="#0F0E0C"/>
<path d="M3.42308 7.17879H5.30769V6.10187H3.42308V7.17879Z" fill="#0F0E0C"/>
<path d="M12.5769 11.4865H6.38462V10.4096H12.5769V11.4865Z" fill="#0F0E0C"/>
<path d="M6.38462 9.33264H12.5769V8.25572H6.38462V9.33264Z" fill="#0F0E0C"/>
<path d="M12.5769 7.17879H6.38462V6.10187H12.5769V7.17879Z" fill="#0F0E0C"/>
<path fill-rule="evenodd" clip-rule="evenodd" d="M1.53846 2.0769L1 2.61537V13.3846L1.53846 13.9231H14.4615L15 13.3846V4.26629L14.4615 3.72783H8.02235L7.10481 2.3211L6.65385 2.0769H1.53846ZM2.07692 12.8461V3.15383H6.36227L7.27981 4.56029L7.73077 4.80475H13.9231V12.8461H2.07692Z" fill="#0F0E0C"/>
</svg>
