<svg width="20" height="20" viewBox="0 0 20 20" fill="none" xmlns="http://www.w3.org/2000/svg">
<path fill-rule="evenodd" clip-rule="evenodd" d="M10.4057 2.03351C10.3736 2.00663 10.3365 1.99592 10.2945 2.00138C8.95306 3.68176 7.79941 5.49163 6.83363 7.431C6.7071 7.31907 6.58539 7.20125 6.46848 7.07759C6.216 6.7257 5.95141 6.38299 5.6747 6.0495C5.33553 6.47834 5.06034 6.94953 4.84916 7.46313C4.34236 8.7219 4.02485 10.0284 3.89662 11.3827C3.81962 12.1695 3.8937 12.9406 4.11888 13.6959C4.98336 16.0162 6.61857 17.4244 9.02447 17.9208C11.0373 18.2125 12.8153 17.6985 14.3587 16.3786C16.1226 14.6524 16.5724 12.623 15.7081 10.2904C15.1669 8.98069 14.5108 7.73843 13.7396 6.56355C12.6979 5.00192 11.5866 3.49191 10.4057 2.03351ZM12.4646 11.2262C11.8886 10.085 11.244 9.00961 10.531 8C10.0979 8.69878 9.66069 9.39462 9.21924 10.0875L8.63625 11.1313C8.43061 11.5385 8.25572 11.9655 8.11156 12.4123C8.01047 12.7739 7.97808 13.1455 8.0144 13.5272C8.16405 14.7379 8.71789 15.5247 9.67592 15.8876C10.5643 16.1471 11.3805 15.9573 12.1245 15.3183C12.8937 14.5554 13.1561 13.5867 12.9115 12.4123C12.7941 11.9992 12.6451 11.6038 12.4646 11.2262Z" fill="#2563EB"/>
</svg>
