<svg width="16" height="16" viewBox="0 0 16 16" fill="none" xmlns="http://www.w3.org/2000/svg">
<g id="database">
<path id="Vector" d="M14 3.33301C14 4.43758 11.3137 5.33301 8 5.33301C4.68629 5.33301 2 4.43758 2 3.33301M14 3.33301C14 2.22844 11.3137 1.33301 8 1.33301C4.68629 1.33301 2 2.22844 2 3.33301M14 3.33301V12.6663C14 13.1968 13.3679 13.7055 12.2426 14.0806C11.1174 14.4556 9.5913 14.6663 8 14.6663C6.4087 14.6663 4.88258 14.4556 3.75736 14.0806C2.63214 13.7055 2 13.1968 2 12.6663V3.33301M2 7.99967C2 8.53011 2.63214 9.03882 3.75736 9.41389C4.88258 9.78896 6.4087 9.99967 8 9.99967C9.5913 9.99967 11.1174 9.78896 12.2426 9.41389C13.3679 9.03882 14 8.53011 14 7.99967" stroke="#3B82F6" stroke-linecap="round" stroke-linejoin="round"/>
</g>
</svg>
