<svg width="20" height="20" viewBox="0 0 20 20" fill="none" xmlns="http://www.w3.org/2000/svg">
<path opacity="0.993" d="M10.2945 2.00138C10.3365 1.99592 10.3736 2.00663 10.4057 2.03351C11.5866 3.49191 12.6979 5.00192 13.7396 6.56355C14.5108 7.73843 15.1669 8.98069 15.7081 10.2904C16.5724 12.623 16.1226 14.6524 14.3587 16.3786C12.8153 17.6985 11.0373 18.2125 9.02447 17.9208C6.61857 17.4244 4.98336 16.0162 4.11888 13.6959C3.8937 12.9406 3.81962 12.1695 3.89662 11.3827C4.02485 10.0284 4.34236 8.7219 4.84916 7.46313C5.06034 6.94953 5.33553 6.47834 5.6747 6.0495C5.95141 6.38299 6.216 6.7257 6.46848 7.07759C6.58539 7.20125 6.7071 7.31907 6.83363 7.431C7.79941 5.49163 8.95306 3.68176 10.2945 2.00138Z" fill="#2563EB"/>
<path d="M10.5434 6C11.5416 7.26201 12.444 8.60625 13.2504 10.0328C13.5032 10.5048 13.7118 10.999 13.8761 11.5154C14.2185 12.9834 13.8512 14.1943 12.7743 15.1478C11.7327 15.9466 10.59 16.1839 9.34629 15.8595C8.00505 15.4059 7.22967 14.4224 7.02016 12.9091C6.96931 12.4319 7.01466 11.9673 7.15619 11.5154C7.358 10.9568 7.60286 10.4231 7.89076 9.91414C8.16282 9.47923 8.43488 9.04434 8.70694 8.60943C9.32496 7.74328 9.9371 6.87348 10.5434 6Z" fill="#7AA0F6"/>
</svg>
