<svg width="16" height="16" viewBox="0 0 16 16" fill="none" xmlns="http://www.w3.org/2000/svg">
<g id="wand-2" clip-path="url(#clip0_587_5034)">
<path id="Vector" d="M9.33332 4.66927L11.3333 6.66927M3.33332 4.0026V6.66927M12.6667 9.33594V12.0026M6.66666 1.33594V2.66927M4.66666 5.33594H1.99999M14 10.6693H11.3333M7.33332 2.0026H5.99999M14.4267 2.42927L13.5733 1.57594C13.4983 1.50015 13.409 1.43998 13.3106 1.39892C13.2122 1.35786 13.1066 1.33672 13 1.33672C12.8934 1.33672 12.7878 1.35786 12.6894 1.39892C12.591 1.43998 12.5017 1.50015 12.4267 1.57594L1.57332 12.4293C1.49753 12.5043 1.43737 12.5936 1.39631 12.692C1.35525 12.7904 1.33411 12.896 1.33411 13.0026C1.33411 13.1092 1.35525 13.2148 1.39631 13.3132C1.43737 13.4116 1.49753 13.5009 1.57332 13.5759L2.42666 14.4293C2.5012 14.5059 2.59035 14.5668 2.68882 14.6083C2.78729 14.6499 2.8931 14.6713 2.99999 14.6713C3.10688 14.6713 3.21269 14.6499 3.31116 14.6083C3.40963 14.5668 3.49878 14.5059 3.57332 14.4293L14.4267 3.57594C14.5033 3.50139 14.5642 3.41225 14.6057 3.31377C14.6473 3.2153 14.6687 3.10949 14.6687 3.0026C14.6687 2.89571 14.6473 2.78991 14.6057 2.69143C14.5642 2.59296 14.5033 2.50382 14.4267 2.42927Z" stroke="#F8FAFC" stroke-linecap="round" stroke-linejoin="round"/>
</g>
<defs>
<clipPath id="clip0_587_5034">
<rect width="16" height="16" fill="white"/>
</clipPath>
</defs>
</svg>
