<svg width="36" height="36" viewBox="0 0 36 36" fill="none" xmlns="http://www.w3.org/2000/svg">
<rect width="36" height="36" rx="10" fill="url(#paint0_linear_24_8620)"/>
<path d="M5.98938 24L6.90138 17.552H5.26938L5.58938 15.36H7.22138L7.33338 14.576C7.55738 12.768 8.74138 11.904 10.7414 11.904C11.2694 11.904 11.8454 12 12.2294 12.112L11.9574 14.192C11.7654 14.112 11.4934 14.096 11.2534 14.096C10.3734 14.096 10.0694 14.448 9.97338 15.008L9.92538 15.36H11.7974L11.4774 17.552H9.62138L8.70938 24H5.98938ZM11.7005 26.672L13.3005 15.36H15.6205L15.7965 16.912H15.9565C16.5165 15.824 17.6205 15.2 18.8045 15.2C20.6925 15.2 21.9565 16.576 21.9565 18.96C21.9565 22.16 20.2765 24.16 17.9885 24.16C16.6605 24.16 15.5885 23.472 15.1885 22.4H15.0285L14.4205 26.672H11.7005ZM15.4445 19.472L15.4125 19.696C15.2205 21.056 15.8765 21.952 17.0605 21.952C18.3085 21.952 19.1565 20.96 19.1565 19.344C19.1565 18.144 18.5165 17.408 17.5085 17.408C16.4525 17.408 15.6205 18.24 15.4445 19.472ZM21.8217 24L25.1017 19.632L22.9577 15.36H25.7257L26.9418 18.16H27.0538L29.0217 15.36H31.7898L28.6058 19.744L30.6858 24H27.9657L26.6377 21.216H26.5097L24.5097 24H21.8217Z" fill="white"/>
<defs>
<linearGradient id="paint0_linear_24_8620" x1="4" y1="3.5" x2="27.6608" y2="36" gradientUnits="userSpaceOnUse">
<stop stop-color="#4661EB"/>
<stop offset="1" stop-color="#5C2885"/>
</linearGradient>
</defs>
</svg>
