<svg width="16" height="16" viewBox="0 0 16 16" fill="none" xmlns="http://www.w3.org/2000/svg">
<g id="cloudflare workers logo monochrome">
<g id="Union">
<path fill-rule="evenodd" clip-rule="evenodd" d="M12.1394 2.55469L14.7644 7.11478C15.0774 7.65325 15.0774 8.32632 14.7644 8.86478L12.1394 13.4249C11.9859 13.6907 11.7652 13.9116 11.4994 14.0651C11.2335 14.2187 10.932 14.2997 10.625 14.2999H5.37499C5.10673 14.2999 4.83848 14.2364 4.60351 14.1228L4.601 14.1273C4.29071 13.9734 4.03304 13.731 3.86062 13.4306L1.23562 8.87055C1.08268 8.6043 1.0022 8.30261 1.0022 7.99555C1.0022 7.6885 1.08268 7.38681 1.23562 7.12055L3.86062 2.56046C4.03356 2.26135 4.29118 2.02012 4.601 1.86719L6.25004 4.84219L4.73562 7.56815L4.7322 7.57434L4.73343 7.57409C4.66289 7.70291 4.6259 7.84744 4.6259 7.99435C4.6259 8.1427 4.66362 8.28862 4.73552 8.41839L6.24895 11.1493L7.83845 8.28257C7.93941 8.10084 7.93941 7.87873 7.83845 7.697L4.60095 1.86142C4.8416 1.74226 5.10645 1.68007 5.37499 1.67969H10.625C10.932 1.67988 11.2335 1.76084 11.4994 1.91442C11.7652 2.06801 11.9859 2.28882 12.1394 2.55469Z" fill="#3B82F6"/>
<path d="M4.73343 7.57409L4.73552 7.57368V7.57031L4.73343 7.57409Z" fill="#3B82F6"/>
</g>
</g>
</svg>
