<svg width="12" height="12" viewBox="0 0 12 12" fill="none" xmlns="http://www.w3.org/2000/svg">
<g id="diamond" clip-path="url(#clip0_494_15920)">
<path id="Vector" d="M1.34995 5.15033C1.23793 5.26224 1.14906 5.39513 1.08843 5.54141C1.02779 5.68769 0.996582 5.84448 0.996582 6.00283C0.996582 6.16117 1.02779 6.31797 1.08843 6.46424C1.14906 6.61052 1.23793 6.74342 1.34995 6.85533L5.14495 10.6503C5.25687 10.7624 5.38976 10.8512 5.53604 10.9119C5.68231 10.9725 5.83911 11.0037 5.99745 11.0037C6.1558 11.0037 6.3126 10.9725 6.45887 10.9119C6.60515 10.8512 6.73804 10.7624 6.84995 10.6503L10.645 6.85533C10.757 6.74342 10.8459 6.61052 10.9065 6.46424C10.9671 6.31797 10.9983 6.16117 10.9983 6.00283C10.9983 5.84448 10.9671 5.68769 10.9065 5.54141C10.8459 5.39513 10.757 5.26224 10.645 5.15033L6.84995 1.35533C6.73804 1.2433 6.60515 1.15443 6.45887 1.0938C6.3126 1.03316 6.1558 1.00195 5.99745 1.00195C5.83911 1.00195 5.68231 1.03316 5.53604 1.0938C5.38976 1.15443 5.25687 1.2433 5.14495 1.35533L1.34995 5.15033Z" stroke="currentColor" stroke-width="0.75" stroke-linecap="round" stroke-linejoin="round"/>
</g>
<defs>
<clipPath id="clip0_494_15920">
<rect width="12" height="12" fill="white"/>
</clipPath>
</defs>
</svg>
