<svg width="16" height="16" viewBox="0 0 16 16" fill="none" xmlns="http://www.w3.org/2000/svg">
<g clip-path="url(#clip0_2123_4346)">
<mask id="mask0_2123_4346" style="mask-type:luminance" maskUnits="userSpaceOnUse" x="0" y="0" width="16" height="16">
<path d="M0 0H16V16H0V0Z" fill="white"/>
</mask>
<g mask="url(#mask0_2123_4346)">
<mask id="path-2-inside-1_2123_4346" fill="white">
<path fill-rule="evenodd" clip-rule="evenodd" d="M5.41612 1.92651C5.36963 1.9192 5.32238 1.91808 5.27559 1.92318C4.3749 2.02127 3.0068 2.50647 2.19906 2.94456C2.14341 2.97474 2.09357 3.01461 2.05189 3.06226C1.71474 3.44774 1.41013 4.07543 1.17176 4.66603C0.926473 5.27374 0.723333 5.91421 0.607507 6.37729C0.230817 7.88334 0.0240279 9.6915 -0.00266661 11.405C-0.00405754 11.4943 0.0169928 11.5825 0.0585537 11.6616C0.382468 12.2776 1.07614 12.8465 1.76833 13.2613C2.46864 13.6808 3.28669 14.0136 3.94873 14.0776C4.11483 14.0936 4.27887 14.031 4.39202 13.9083C4.55819 13.7281 4.83886 13.3098 5.04981 12.987C5.16214 12.8151 5.26605 12.6524 5.34178 12.5328C5.34696 12.5247 5.35199 12.5167 5.3569 12.5089C6.07411 12.6814 6.94961 12.8001 8.00002 12.8001C9.04931 12.8001 9.92407 12.6816 10.6408 12.5095C10.6456 12.517 10.6506 12.5248 10.6556 12.5328C10.7313 12.6524 10.8353 12.8151 10.9476 12.987C11.1585 13.3098 11.4393 13.7281 11.6053 13.9083C11.7185 14.031 11.8826 14.0936 12.0486 14.0776C12.7107 14.0136 13.5287 13.6808 14.2291 13.2613C14.9213 12.8465 15.6149 12.2776 15.9389 11.6616C15.9804 11.5825 16.0015 11.4943 16.0001 11.405C15.9733 9.6915 15.7666 7.88334 15.3899 6.37729C15.274 5.91421 15.0709 5.27374 14.8256 4.66603C14.5873 4.07543 14.2827 3.44774 13.9455 3.06226C13.9038 3.01461 13.854 2.97474 13.7983 2.94456C12.9906 2.50647 11.6225 2.02127 10.7218 1.92318C10.675 1.91808 10.6278 1.9192 10.5813 1.92651C10.3562 1.96187 10.1634 2.07762 10.0224 2.18412C9.87335 2.29675 9.73519 2.43515 9.61619 2.5748C9.44204 2.77918 9.27314 3.02899 9.16539 3.26581C8.802 3.2243 8.41295 3.20002 8 3.20002C7.58613 3.20002 7.19624 3.22441 6.83214 3.26608C6.72439 3.0292 6.55543 2.77926 6.38121 2.5748C6.26221 2.43515 6.12406 2.29675 5.97497 2.18412C5.83399 2.07762 5.64117 1.96187 5.41612 1.92651ZM11.6972 12.1821C11.7421 12.252 11.7905 12.3269 11.8405 12.4035C11.9793 12.6159 12.1162 12.819 12.2233 12.969C12.6412 12.8728 13.1711 12.6517 13.6809 12.3463C14.2565 12.0013 14.7104 11.6064 14.9308 11.2728C14.8957 9.66926 14.6976 8.00542 14.3551 6.63611C14.2516 6.22229 14.0639 5.62869 13.8365 5.06526C13.6231 4.53673 13.3969 4.0911 13.1999 3.83461C12.5099 3.47786 11.4273 3.10135 10.7195 2.99808C10.7055 3.00656 10.6875 3.01853 10.6654 3.03523C10.5943 3.08894 10.5117 3.16846 10.4281 3.26662C10.3727 3.33167 10.3234 3.39694 10.281 3.45869C10.6731 3.55039 11.0192 3.6577 11.3156 3.76546C11.7066 3.90764 12.0114 4.0508 12.2217 4.16051C12.3269 4.21539 12.4085 4.26198 12.4657 4.296C12.4942 4.31302 12.5167 4.3269 12.5328 4.33712L12.5524 4.34964L12.5586 4.35371L12.5609 4.35518L12.5618 4.35577C12.562 4.35589 12.5625 4.35626 12.2823 4.77652L12.5618 4.35577C12.8068 4.51915 12.8738 4.85079 12.7104 5.09586C12.5473 5.34047 12.2172 5.40692 11.9723 5.24472L11.9712 5.24401C11.9711 5.24391 11.9708 5.24378 12.2667 4.80002L11.9712 5.24401L11.9632 5.23897C11.9547 5.23356 11.9402 5.22453 11.9198 5.21238C11.8789 5.18807 11.8148 5.15132 11.7283 5.1062C11.5553 5.01592 11.2934 4.89241 10.951 4.76792C10.2664 4.51895 9.26158 4.26669 8 4.26669C6.73842 4.26669 5.7336 4.51895 5.04893 4.76792C4.70656 4.89241 4.44474 5.01592 4.2717 5.1062C4.18523 5.15132 4.12107 5.18807 4.08026 5.21238C4.05986 5.22453 4.04531 5.23356 4.03675 5.23897L4.02842 5.24429C4.02832 5.24436 4.02851 5.24423 4.02842 5.24429C3.78339 5.40717 3.45283 5.34075 3.28958 5.09586C3.12619 4.85079 3.19241 4.51965 3.4375 4.35627L3.73334 4.80002C3.4375 4.35627 3.43731 4.35639 3.4375 4.35627L3.43913 4.35518L3.44136 4.35371L3.4476 4.34964L3.46716 4.33712C3.48333 4.3269 3.50577 4.31302 3.53433 4.296C3.59144 4.26198 3.67311 4.21539 3.7783 4.16051C3.9886 4.0508 4.29344 3.90764 4.6844 3.76546C4.98021 3.6579 5.32559 3.55081 5.71677 3.45921C5.67432 3.39731 5.62491 3.33185 5.56931 3.26662C5.48568 3.16846 5.40311 3.08894 5.332 3.03523C5.30989 3.01853 5.29186 3.00656 5.2779 2.99808C4.57013 3.10135 3.48749 3.47786 2.79752 3.83461C2.60048 4.0911 2.37421 4.53673 2.16089 5.06526C1.93349 5.62869 1.74581 6.22229 1.6423 6.63611C1.29981 8.00542 1.1017 9.66926 1.06666 11.2728C1.28698 11.6064 1.74086 12.0013 2.31655 12.3463C2.8263 12.6517 3.35618 12.8728 3.77417 12.969C3.88124 12.819 4.01809 12.6159 4.15686 12.4035C4.20713 12.3265 4.25575 12.2514 4.30081 12.1813C4.19929 12.1418 4.10293 12.1018 4.01162 12.0616C3.58451 11.8733 3.27065 11.6824 3.05839 11.5331C2.95232 11.4587 2.87177 11.3947 2.81523 11.3468C2.78697 11.3229 2.76471 11.303 2.74827 11.2878C2.74006 11.2802 2.73329 11.2738 2.72796 11.2687L2.72104 11.262L2.71837 11.2594L2.71724 11.2583C2.717 11.2581 2.71624 11.2573 3.09336 10.8801L2.71624 11.2573C2.50796 11.049 2.50796 10.7113 2.71624 10.503C2.92343 10.2958 3.25865 10.2948 3.46718 10.4998L3.47131 10.5036C3.47691 10.5088 3.48789 10.5187 3.50441 10.5327C3.53745 10.5607 3.59274 10.605 3.67166 10.6605C3.82941 10.7713 4.0822 10.927 4.44176 11.0855C5.15903 11.4015 6.31228 11.7335 8.00002 11.7335C9.68778 11.7335 10.8411 11.4015 11.5583 11.0855C11.9179 10.927 12.1707 10.7713 12.3284 10.6605C12.4074 10.605 12.4626 10.5606 12.4957 10.5327C12.5122 10.5187 12.5232 10.5088 12.5287 10.5036L12.5329 10.4998C12.7414 10.2948 13.0766 10.2958 13.2838 10.503C13.4921 10.7113 13.4921 11.049 13.2838 11.2573L12.912 10.8855C13.2838 11.2573 13.2842 11.2571 13.2838 11.2573L13.2828 11.2583L13.2817 11.2594L13.279 11.262L13.2721 11.2687C13.2668 11.2738 13.2601 11.2802 13.2517 11.2878C13.2353 11.303 13.2131 11.3229 13.1849 11.3468C13.1283 11.3947 13.0478 11.4587 12.9417 11.5331C12.7294 11.6824 12.4156 11.8733 11.9885 12.0616C11.8965 12.1021 11.7995 12.1424 11.6972 12.1821ZM4.35253 7.47971C4.6124 7.19985 4.96508 7.04175 5.33341 7.04C5.70174 7.04175 6.05443 7.19985 6.31431 7.47971C6.57418 7.75959 6.72008 8.13841 6.72008 8.53334C6.72008 8.92825 6.57418 9.30707 6.31431 9.58695C6.05443 9.86681 5.70174 10.0249 5.33341 10.0267C4.96508 10.0249 4.6124 9.86681 4.35253 9.58695C4.09264 9.30707 3.94674 8.92825 3.94674 8.53334C3.94674 8.13841 4.09264 7.75959 4.35253 7.47971ZM10.6654 7.04C10.2971 7.04175 9.94443 7.19985 9.68455 7.47971C9.42467 7.75959 9.27878 8.13841 9.27878 8.53334C9.27878 8.92825 9.42467 9.30707 9.68455 9.58695C9.94443 9.86681 10.2971 10.0249 10.6654 10.0267C11.0338 10.0249 11.3865 9.86681 11.6463 9.58695C11.9062 9.30707 12.0522 8.92825 12.0522 8.53334C12.0522 8.13841 11.9062 7.75959 11.6463 7.47971C11.3865 7.19985 11.0338 7.04175 10.6654 7.04Z"/>
</mask>
<path fill-rule="evenodd" clip-rule="evenodd" d="M5.41612 1.92651C5.36963 1.9192 5.32238 1.91808 5.27559 1.92318C4.3749 2.02127 3.0068 2.50647 2.19906 2.94456C2.14341 2.97474 2.09357 3.01461 2.05189 3.06226C1.71474 3.44774 1.41013 4.07543 1.17176 4.66603C0.926473 5.27374 0.723333 5.91421 0.607507 6.37729C0.230817 7.88334 0.0240279 9.6915 -0.00266661 11.405C-0.00405754 11.4943 0.0169928 11.5825 0.0585537 11.6616C0.382468 12.2776 1.07614 12.8465 1.76833 13.2613C2.46864 13.6808 3.28669 14.0136 3.94873 14.0776C4.11483 14.0936 4.27887 14.031 4.39202 13.9083C4.55819 13.7281 4.83886 13.3098 5.04981 12.987C5.16214 12.8151 5.26605 12.6524 5.34178 12.5328C5.34696 12.5247 5.35199 12.5167 5.3569 12.5089C6.07411 12.6814 6.94961 12.8001 8.00002 12.8001C9.04931 12.8001 9.92407 12.6816 10.6408 12.5095C10.6456 12.517 10.6506 12.5248 10.6556 12.5328C10.7313 12.6524 10.8353 12.8151 10.9476 12.987C11.1585 13.3098 11.4393 13.7281 11.6053 13.9083C11.7185 14.031 11.8826 14.0936 12.0486 14.0776C12.7107 14.0136 13.5287 13.6808 14.2291 13.2613C14.9213 12.8465 15.6149 12.2776 15.9389 11.6616C15.9804 11.5825 16.0015 11.4943 16.0001 11.405C15.9733 9.6915 15.7666 7.88334 15.3899 6.37729C15.274 5.91421 15.0709 5.27374 14.8256 4.66603C14.5873 4.07543 14.2827 3.44774 13.9455 3.06226C13.9038 3.01461 13.854 2.97474 13.7983 2.94456C12.9906 2.50647 11.6225 2.02127 10.7218 1.92318C10.675 1.91808 10.6278 1.9192 10.5813 1.92651C10.3562 1.96187 10.1634 2.07762 10.0224 2.18412C9.87335 2.29675 9.73519 2.43515 9.61619 2.5748C9.44204 2.77918 9.27314 3.02899 9.16539 3.26581C8.802 3.2243 8.41295 3.20002 8 3.20002C7.58613 3.20002 7.19624 3.22441 6.83214 3.26608C6.72439 3.0292 6.55543 2.77926 6.38121 2.5748C6.26221 2.43515 6.12406 2.29675 5.97497 2.18412C5.83399 2.07762 5.64117 1.96187 5.41612 1.92651ZM11.6972 12.1821C11.7421 12.252 11.7905 12.3269 11.8405 12.4035C11.9793 12.6159 12.1162 12.819 12.2233 12.969C12.6412 12.8728 13.1711 12.6517 13.6809 12.3463C14.2565 12.0013 14.7104 11.6064 14.9308 11.2728C14.8957 9.66926 14.6976 8.00542 14.3551 6.63611C14.2516 6.22229 14.0639 5.62869 13.8365 5.06526C13.6231 4.53673 13.3969 4.0911 13.1999 3.83461C12.5099 3.47786 11.4273 3.10135 10.7195 2.99808C10.7055 3.00656 10.6875 3.01853 10.6654 3.03523C10.5943 3.08894 10.5117 3.16846 10.4281 3.26662C10.3727 3.33167 10.3234 3.39694 10.281 3.45869C10.6731 3.55039 11.0192 3.6577 11.3156 3.76546C11.7066 3.90764 12.0114 4.0508 12.2217 4.16051C12.3269 4.21539 12.4085 4.26198 12.4657 4.296C12.4942 4.31302 12.5167 4.3269 12.5328 4.33712L12.5524 4.34964L12.5586 4.35371L12.5609 4.35518L12.5618 4.35577C12.562 4.35589 12.5625 4.35626 12.2823 4.77652L12.5618 4.35577C12.8068 4.51915 12.8738 4.85079 12.7104 5.09586C12.5473 5.34047 12.2172 5.40692 11.9723 5.24472L11.9712 5.24401C11.9711 5.24391 11.9708 5.24378 12.2667 4.80002L11.9712 5.24401L11.9632 5.23897C11.9547 5.23356 11.9402 5.22453 11.9198 5.21238C11.8789 5.18807 11.8148 5.15132 11.7283 5.1062C11.5553 5.01592 11.2934 4.89241 10.951 4.76792C10.2664 4.51895 9.26158 4.26669 8 4.26669C6.73842 4.26669 5.7336 4.51895 5.04893 4.76792C4.70656 4.89241 4.44474 5.01592 4.2717 5.1062C4.18523 5.15132 4.12107 5.18807 4.08026 5.21238C4.05986 5.22453 4.04531 5.23356 4.03675 5.23897L4.02842 5.24429C4.02832 5.24436 4.02851 5.24423 4.02842 5.24429C3.78339 5.40717 3.45283 5.34075 3.28958 5.09586C3.12619 4.85079 3.19241 4.51965 3.4375 4.35627L3.73334 4.80002C3.4375 4.35627 3.43731 4.35639 3.4375 4.35627L3.43913 4.35518L3.44136 4.35371L3.4476 4.34964L3.46716 4.33712C3.48333 4.3269 3.50577 4.31302 3.53433 4.296C3.59144 4.26198 3.67311 4.21539 3.7783 4.16051C3.9886 4.0508 4.29344 3.90764 4.6844 3.76546C4.98021 3.6579 5.32559 3.55081 5.71677 3.45921C5.67432 3.39731 5.62491 3.33185 5.56931 3.26662C5.48568 3.16846 5.40311 3.08894 5.332 3.03523C5.30989 3.01853 5.29186 3.00656 5.2779 2.99808C4.57013 3.10135 3.48749 3.47786 2.79752 3.83461C2.60048 4.0911 2.37421 4.53673 2.16089 5.06526C1.93349 5.62869 1.74581 6.22229 1.6423 6.63611C1.29981 8.00542 1.1017 9.66926 1.06666 11.2728C1.28698 11.6064 1.74086 12.0013 2.31655 12.3463C2.8263 12.6517 3.35618 12.8728 3.77417 12.969C3.88124 12.819 4.01809 12.6159 4.15686 12.4035C4.20713 12.3265 4.25575 12.2514 4.30081 12.1813C4.19929 12.1418 4.10293 12.1018 4.01162 12.0616C3.58451 11.8733 3.27065 11.6824 3.05839 11.5331C2.95232 11.4587 2.87177 11.3947 2.81523 11.3468C2.78697 11.3229 2.76471 11.303 2.74827 11.2878C2.74006 11.2802 2.73329 11.2738 2.72796 11.2687L2.72104 11.262L2.71837 11.2594L2.71724 11.2583C2.717 11.2581 2.71624 11.2573 3.09336 10.8801L2.71624 11.2573C2.50796 11.049 2.50796 10.7113 2.71624 10.503C2.92343 10.2958 3.25865 10.2948 3.46718 10.4998L3.47131 10.5036C3.47691 10.5088 3.48789 10.5187 3.50441 10.5327C3.53745 10.5607 3.59274 10.605 3.67166 10.6605C3.82941 10.7713 4.0822 10.927 4.44176 11.0855C5.15903 11.4015 6.31228 11.7335 8.00002 11.7335C9.68778 11.7335 10.8411 11.4015 11.5583 11.0855C11.9179 10.927 12.1707 10.7713 12.3284 10.6605C12.4074 10.605 12.4626 10.5606 12.4957 10.5327C12.5122 10.5187 12.5232 10.5088 12.5287 10.5036L12.5329 10.4998C12.7414 10.2948 13.0766 10.2958 13.2838 10.503C13.4921 10.7113 13.4921 11.049 13.2838 11.2573L12.912 10.8855C13.2838 11.2573 13.2842 11.2571 13.2838 11.2573L13.2828 11.2583L13.2817 11.2594L13.279 11.262L13.2721 11.2687C13.2668 11.2738 13.2601 11.2802 13.2517 11.2878C13.2353 11.303 13.2131 11.3229 13.1849 11.3468C13.1283 11.3947 13.0478 11.4587 12.9417 11.5331C12.7294 11.6824 12.4156 11.8733 11.9885 12.0616C11.8965 12.1021 11.7995 12.1424 11.6972 12.1821ZM4.35253 7.47971C4.6124 7.19985 4.96508 7.04175 5.33341 7.04C5.70174 7.04175 6.05443 7.19985 6.31431 7.47971C6.57418 7.75959 6.72008 8.13841 6.72008 8.53334C6.72008 8.92825 6.57418 9.30707 6.31431 9.58695C6.05443 9.86681 5.70174 10.0249 5.33341 10.0267C4.96508 10.0249 4.6124 9.86681 4.35253 9.58695C4.09264 9.30707 3.94674 8.92825 3.94674 8.53334C3.94674 8.13841 4.09264 7.75959 4.35253 7.47971ZM10.6654 7.04C10.2971 7.04175 9.94443 7.19985 9.68455 7.47971C9.42467 7.75959 9.27878 8.13841 9.27878 8.53334C9.27878 8.92825 9.42467 9.30707 9.68455 9.58695C9.94443 9.86681 10.2971 10.0249 10.6654 10.0267C11.0338 10.0249 11.3865 9.86681 11.6463 9.58695C11.9062 9.30707 12.0522 8.92825 12.0522 8.53334C12.0522 8.13841 11.9062 7.75959 11.6463 7.47971C11.3865 7.19985 11.0338 7.04175 10.6654 7.04Z" fill="currentColor"/>
<path d="M5.41612 1.92651L5.26084 2.91438L5.2609 2.91439L5.41612 1.92651ZM5.27559 1.92318L5.38385 2.9173L5.3839 2.9173L5.27559 1.92318ZM2.19906 2.94456L2.67581 3.8236L2.67583 3.82359L2.19906 2.94456ZM2.05189 3.06226L1.29918 2.4039L1.29917 2.40392L2.05189 3.06226ZM1.17176 4.66603L2.09907 5.04031L2.09908 5.0403L1.17176 4.66603ZM0.607507 6.37729L-0.362608 6.13465L-0.362608 6.13465L0.607507 6.37729ZM-0.00266661 11.405L0.997212 11.4206V11.4206L-0.00266661 11.405ZM0.0585537 11.6616L-0.826545 12.127L-0.82654 12.127L0.0585537 11.6616ZM1.76833 13.2613L1.25438 14.1191L1.25444 14.1191L1.76833 13.2613ZM3.94873 14.0776L3.85251 15.0729L3.85285 15.073L3.94873 14.0776ZM4.39202 13.9083L5.12706 14.5863L5.1271 14.5863L4.39202 13.9083ZM5.04981 12.987L5.88689 13.5341L5.88699 13.5339L5.04981 12.987ZM5.34178 12.5328L4.4988 11.9949L4.49698 11.9978L5.34178 12.5328ZM5.3569 12.5089L5.59072 11.5367L4.89328 11.3689L4.51086 11.9758L5.3569 12.5089ZM10.6408 12.5095L11.4855 11.9741L11.1027 11.3701L10.4073 11.5371L10.6408 12.5095ZM10.6556 12.5328L9.80978 13.0663L9.81067 13.0677L10.6556 12.5328ZM10.9476 12.987L10.1104 13.5339L10.1105 13.534L10.9476 12.987ZM11.6053 13.9083L10.8701 14.5861L10.8704 14.5864L11.6053 13.9083ZM12.0486 14.0776L12.1445 15.073L12.1449 15.0729L12.0486 14.0776ZM14.2291 13.2613L14.743 14.1191L14.7431 14.1191L14.2291 13.2613ZM15.9389 11.6616L16.824 12.127L16.8243 12.1264L15.9389 11.6616ZM16.0001 11.405L17 11.3895L17 11.3894L16.0001 11.405ZM15.3899 6.37729L14.4198 6.61997L14.4198 6.61997L15.3899 6.37729ZM14.8256 4.66603L13.8982 5.0402L13.8983 5.04038L14.8256 4.66603ZM13.9455 3.06226L14.6982 2.40389L14.698 2.40371L13.9455 3.06226ZM13.7983 2.94456L13.3215 3.82358L13.3217 3.82367L13.7983 2.94456ZM10.7218 1.92318L10.8301 0.929059L10.8301 0.929057L10.7218 1.92318ZM10.5813 1.92651L10.7365 2.91439L10.7365 2.91439L10.5813 1.92651ZM10.0224 2.18412L9.41969 1.38619L9.41965 1.38621L10.0224 2.18412ZM9.61619 2.5748L8.85505 1.92621L8.85504 1.92622L9.61619 2.5748ZM9.16539 3.26581L9.05191 4.25935L9.77441 4.34186L10.0756 3.67997L9.16539 3.26581ZM6.83214 3.26608L5.92189 3.68014L6.2231 4.34232L6.94586 4.2596L6.83214 3.26608ZM6.38121 2.5748L7.14236 1.92622L7.14235 1.92621L6.38121 2.5748ZM5.97497 2.18412L6.57775 1.38621L6.57772 1.38619L5.97497 2.18412ZM11.6972 12.1821L11.3355 11.2498L10.1938 11.6927L10.856 12.7228L11.6972 12.1821ZM11.8405 12.4035L11.003 12.9499L11.0034 12.9506L11.8405 12.4035ZM12.2233 12.969L11.4094 13.5501L11.7973 14.0932L12.4476 13.9435L12.2233 12.969ZM13.6809 12.3463L14.1948 13.2041L14.1949 13.2041L13.6809 12.3463ZM14.9308 11.2728L15.7652 11.8239L15.9374 11.5632L15.9305 11.2509L14.9308 11.2728ZM14.3551 6.63611L13.385 6.87867L13.385 6.87876L14.3551 6.63611ZM13.8365 5.06526L14.7638 4.69097L14.7638 4.69097L13.8365 5.06526ZM13.1999 3.83461L13.9929 3.22545L13.8572 3.04867L13.6592 2.9463L13.1999 3.83461ZM10.7195 2.99808L10.8638 2.00856L10.508 1.95665L10.2007 2.14319L10.7195 2.99808ZM10.6654 3.03523L11.2682 3.83315L11.2687 3.83273L10.6654 3.03523ZM10.4281 3.26662L11.1892 3.91519L11.1892 3.91519L10.4281 3.26662ZM10.281 3.45869L9.45648 2.89283L8.62855 4.0992L10.0532 4.43241L10.281 3.45869ZM11.3156 3.76546L11.6574 2.82569L11.6573 2.82564L11.3156 3.76546ZM12.2217 4.16051L11.759 5.04705L11.7594 5.04727L12.2217 4.16051ZM12.4657 4.296L12.9785 3.43752L12.9771 3.43668L12.4657 4.296ZM12.5328 4.33712L13.0704 3.4939L13.0685 3.49273L12.5328 4.33712ZM12.5524 4.34964L13.1025 3.51452L13.0963 3.51042L13.09 3.50641L12.5524 4.34964ZM12.5586 4.35371L12.0085 5.18882L12.0094 5.18942L12.5586 4.35371ZM12.5609 4.35518L12.0117 5.19089L12.0255 5.19999L12.0397 5.20862L12.5609 4.35518ZM12.2823 4.77652L11.4494 4.22323L13.1145 5.33113L12.2823 4.77652ZM12.7104 5.09586L11.8784 4.5411L11.8784 4.54111L12.7104 5.09586ZM11.9723 5.24472L12.5244 4.41098L12.5229 4.40998L11.9723 5.24472ZM12.2667 4.80002L13.0992 5.35404L11.4347 4.24525L12.2667 4.80002ZM11.9632 5.23897L11.4279 6.08363L11.4297 6.08478L11.9632 5.23897ZM11.9198 5.21238L12.432 4.3535L12.4311 4.35301L11.9198 5.21238ZM11.7283 5.1062L11.2657 5.99275L11.2659 5.99284L11.7283 5.1062ZM10.951 4.76792L10.6093 5.70771L10.6093 5.70773L10.951 4.76792ZM5.04893 4.76792L5.39066 5.70772L5.39067 5.70771L5.04893 4.76792ZM4.2717 5.1062L3.80912 4.21962L3.80912 4.21963L4.2717 5.1062ZM4.08026 5.21238L3.56851 4.35324L3.56847 4.35326L4.08026 5.21238ZM4.03675 5.23897L3.50287 4.39339L3.49834 4.39629L4.03675 5.23897ZM3.28958 5.09586L4.12164 4.54117L4.12162 4.54115L3.28958 5.09586ZM3.43913 4.35518L2.88812 3.52067L2.88443 3.52313L3.43913 4.35518ZM3.44136 4.35371L2.89461 3.51639L2.89035 3.51921L3.44136 4.35371ZM3.4476 4.34964L2.90876 3.50717L2.90086 3.51233L3.4476 4.34964ZM3.46716 4.33712L2.93295 3.49175L2.92834 3.4947L3.46716 4.33712ZM3.53433 4.296L3.02248 3.43693L3.53433 4.296ZM3.7783 4.16051L3.31575 3.27392L3.31572 3.27393L3.7783 4.16051ZM4.6844 3.76546L4.34267 2.82567L4.34263 2.82568L4.6844 3.76546ZM5.71677 3.45921L5.94475 4.43288L7.36851 4.0995L6.54145 2.89361L5.71677 3.45921ZM5.56931 3.26662L4.80816 3.91519L4.8082 3.91523L5.56931 3.26662ZM5.332 3.03523L4.72924 3.83315L4.72929 3.83319L5.332 3.03523ZM5.2779 2.99808L5.797 2.14337L5.48951 1.95662L5.13353 2.00856L5.2779 2.99808ZM2.79752 3.83461L2.33823 2.94632L2.14026 3.04867L2.0045 3.22541L2.79752 3.83461ZM2.16089 5.06526L1.23357 4.69098L1.23357 4.69099L2.16089 5.06526ZM1.6423 6.63611L0.672183 6.39346L0.67218 6.39347L1.6423 6.63611ZM1.06666 11.2728L0.0668976 11.2509L0.0600744 11.5632L0.232175 11.8238L1.06666 11.2728ZM2.31655 12.3463L1.80255 13.2041L1.80262 13.2041L2.31655 12.3463ZM3.77417 12.969L3.54985 13.9435L4.20024 14.0932L4.58803 13.55L3.77417 12.969ZM4.15686 12.4035L4.994 12.9505L4.99424 12.9502L4.15686 12.4035ZM4.30081 12.1813L5.14228 12.7216L5.80313 11.6924L4.66314 11.2492L4.30081 12.1813ZM4.01162 12.0616L3.60827 12.9766L3.60856 12.9767L4.01162 12.0616ZM3.05839 11.5331L3.63353 10.7151L3.63291 10.7147L3.05839 11.5331ZM2.81523 11.3468L3.46163 10.5838L3.46079 10.5831L2.81523 11.3468ZM2.74827 11.2878L2.07039 12.023L2.07062 12.0232L2.74827 11.2878ZM2.72796 11.2687L2.03142 11.9863L2.03543 11.9901L2.72796 11.2687ZM2.72104 11.262L3.41757 10.5445L3.41348 10.5405L2.72104 11.262ZM2.71837 11.2594L1.99813 11.9532L2.01176 11.9673L2.02593 11.9809L2.71837 11.2594ZM2.71724 11.2583L3.43749 10.5645L3.4068 10.5327L3.37342 10.5037L2.71724 11.2583ZM2.71624 11.2573L2.00906 11.9643L2.71622 12.6716L3.42339 11.9644L2.71624 11.2573ZM2.71624 10.503L3.42329 11.2102L3.42334 11.2101L2.71624 10.503ZM3.46718 10.4998L2.76614 11.2129L2.77498 11.2216L2.78404 11.23L3.46718 10.4998ZM3.47131 10.5036L2.78815 11.2339L2.79349 11.2389L3.47131 10.5036ZM3.50441 10.5327L2.85809 11.2957L2.85823 11.2959L3.50441 10.5327ZM3.67166 10.6605L4.24671 9.84233L4.24666 9.8423L3.67166 10.6605ZM4.44176 11.0855L4.03839 12.0005L4.03854 12.0006L4.44176 11.0855ZM11.5583 11.0855L11.9615 12.0006L11.9617 12.0005L11.5583 11.0855ZM12.3284 10.6605L11.7535 9.84226L11.7534 9.84231L12.3284 10.6605ZM12.4957 10.5327L13.1415 11.2962L13.1418 11.2959L12.4957 10.5327ZM12.5287 10.5036L11.8494 9.76976L11.8474 9.77163L12.5287 10.5036ZM12.5329 10.4998L13.2122 11.2336L13.2233 11.2234L13.234 11.2129L12.5329 10.4998ZM13.2838 10.503L13.991 9.79598L13.9908 9.79582L13.2838 10.503ZM13.2828 11.2583L12.6142 10.5146L12.5766 10.5485L12.5425 10.586L13.2828 11.2583ZM13.2817 11.2594L13.9741 11.981L13.9989 11.9572L14.022 11.9317L13.2817 11.2594ZM13.279 11.262L12.5867 10.5404L12.583 10.544L13.279 11.262ZM13.2721 11.2687L13.9646 11.9901L13.9681 11.9867L13.2721 11.2687ZM13.2517 11.2878L12.5786 10.5483L12.5739 10.5526L13.2517 11.2878ZM13.1849 11.3468L12.5393 10.5831L12.5385 10.5838L13.1849 11.3468ZM12.9417 11.5331L12.3674 10.7145L12.3665 10.7151L12.9417 11.5331ZM11.9885 12.0616L11.5851 11.1465L11.5851 11.1465L11.9885 12.0616ZM4.35253 7.47971L5.08532 8.16017L5.08532 8.16017L4.35253 7.47971ZM5.33341 7.04L5.33816 6.03997L5.32866 6.04001L5.33341 7.04ZM6.31431 7.47971L7.04711 6.79928L7.0471 6.79926L6.31431 7.47971ZM6.31431 9.58695L7.0471 10.2674L7.04711 10.2674L6.31431 9.58695ZM5.33341 10.0267L5.32863 11.0267L5.33819 11.0267L5.33341 10.0267ZM4.35253 9.58695L5.08532 8.90649L5.08532 8.90649L4.35253 9.58695ZM10.6654 7.04L10.6702 6.03997L10.6607 6.04001L10.6654 7.04ZM9.68455 7.47971L8.95177 6.79925L8.95174 6.79928L9.68455 7.47971ZM9.68455 9.58695L8.95174 10.2674L8.95177 10.2674L9.68455 9.58695ZM10.6654 10.0267L10.6607 11.0267L10.6702 11.0267L10.6654 10.0267ZM11.6463 9.58695L10.9136 8.9064L10.9135 8.90654L11.6463 9.58695ZM11.6463 7.47971L10.9135 8.16012L10.9136 8.16026L11.6463 7.47971ZM5.5714 0.938638C5.4377 0.917623 5.30181 0.914406 5.16727 0.929065L5.3839 2.9173C5.34295 2.92176 5.30157 2.92078 5.26084 2.91438L5.5714 0.938638ZM5.16732 0.92906C4.10695 1.04454 2.6137 1.58206 1.7223 2.06552L2.67583 3.82359C3.3999 3.43087 4.64286 2.998 5.38385 2.9173L5.16732 0.92906ZM1.72231 2.06552C1.56224 2.15234 1.41898 2.26694 1.29918 2.4039L2.80459 3.72063C2.76817 3.76227 2.72457 3.79715 2.67581 3.8236L1.72231 2.06552ZM1.29917 2.40392C0.842718 2.9258 0.486877 3.69107 0.244437 4.29176L2.09908 5.0403C2.33337 4.45978 2.58677 3.96967 2.8046 3.72061L1.29917 2.40392ZM0.244443 4.29175C-0.0175982 4.94098 -0.235232 5.62539 -0.362608 6.13465L1.57762 6.61994C1.6819 6.20303 1.87055 5.60651 2.09907 5.04031L0.244443 4.29175ZM-0.362608 6.13465C-0.761407 7.72909 -0.974908 9.61538 -1.00255 11.3895L0.997212 11.4206C1.02296 9.76762 1.22304 8.03759 1.57762 6.61994L-0.362608 6.13465ZM-1.00255 11.3895C-1.00654 11.6462 -0.946025 11.8997 -0.826545 12.127L0.943653 11.1962C0.980011 11.2653 0.998429 11.3425 0.997212 11.4206L-1.00255 11.3895ZM-0.82654 12.127C-0.373479 12.9886 0.512016 13.6743 1.25438 14.1191L2.28229 12.4034C1.64027 12.0188 1.13842 11.5666 0.943647 11.1962L-0.82654 12.127ZM1.25444 14.1191C2.0199 14.5777 2.98452 14.989 3.85251 15.0729L4.04495 13.0822C3.58886 13.0381 2.91739 12.7839 2.28223 12.4034L1.25444 14.1191ZM3.85285 15.073C4.33015 15.1189 4.80171 14.939 5.12706 14.5863L3.65699 13.2303C3.75604 13.1229 3.89951 13.0682 4.04461 13.0822L3.85285 15.073ZM5.1271 14.5863C5.36287 14.3307 5.6942 13.8289 5.88689 13.5341L4.21272 12.4399C3.98352 12.7906 3.75351 13.1256 3.65694 13.2303L5.1271 14.5863ZM5.88699 13.5339C6.0026 13.357 6.10915 13.1902 6.18659 13.0679L4.49698 11.9978C4.42295 12.1146 4.32167 12.2732 4.21262 12.4401L5.88699 13.5339ZM6.18476 13.0708C6.19181 13.0597 6.19856 13.049 6.20294 13.0421L4.51086 11.9758C4.50542 11.9844 4.5021 11.9897 4.49881 11.9949L6.18476 13.0708ZM5.12308 13.4812C5.91949 13.6727 6.8736 13.8001 8.00002 13.8001V11.8001C7.02563 11.8001 6.22874 11.6901 5.59072 11.5367L5.12308 13.4812ZM8.00002 13.8001C9.12528 13.8001 10.0785 13.673 10.8744 13.4818L10.4073 11.5371C9.76959 11.6903 8.97335 11.8001 8.00002 11.8001V13.8001ZM9.79621 13.0448C9.80078 13.052 9.80528 13.0591 9.80978 13.0663L11.5015 11.9994C11.4959 11.9905 11.4905 11.9821 11.4855 11.9741L9.79621 13.0448ZM9.81067 13.0677C9.88834 13.1904 9.99496 13.3571 10.1104 13.5339L11.7848 12.4401C11.6757 12.273 11.5743 12.1144 11.5006 11.998L9.81067 13.0677ZM10.1105 13.534C10.3033 13.8291 10.6345 14.3306 10.8701 14.5861L12.3406 13.2305C12.244 13.1257 12.0137 12.7904 11.7848 12.4401L10.1105 13.534ZM10.8704 14.5864C11.1957 14.939 11.6672 15.1189 12.1445 15.073L11.9527 13.0822C12.0979 13.0682 12.2413 13.1229 12.3403 13.2302L10.8704 14.5864ZM12.1449 15.0729C13.0129 14.989 13.9775 14.5777 14.743 14.1191L13.7153 12.4034C13.08 12.7839 12.4086 13.0381 11.9524 13.0822L12.1449 15.0729ZM14.7431 14.1191C15.4854 13.6743 16.3709 12.9886 16.824 12.127L15.0538 11.1961C14.859 11.5666 14.3571 12.0188 13.7152 12.4034L14.7431 14.1191ZM16.8243 12.1264C16.9432 11.9 17.004 11.6467 17 11.3895L15.0002 11.4206C14.999 11.342 15.0176 11.2651 15.0535 11.1968L16.8243 12.1264ZM17 11.3894C16.9723 9.6154 16.7588 7.7291 16.36 6.13462L14.4198 6.61997C14.7744 8.03758 14.9744 9.7676 15.0002 11.4207L17 11.3894ZM16.36 6.13462C16.2326 5.62543 16.015 4.941 15.7529 4.29168L13.8983 5.04038C14.1269 5.60648 14.3155 6.203 14.4198 6.61997L16.36 6.13462ZM15.753 4.29186C15.5106 3.69106 15.1547 2.92579 14.6982 2.40389L13.1928 3.72064C13.4106 3.96968 13.6641 4.45979 13.8982 5.0402L15.753 4.29186ZM14.698 2.40371C14.5784 2.267 14.4352 2.15236 14.2749 2.06544L13.3217 3.82367C13.2727 3.79713 13.2292 3.76221 13.193 3.72082L14.698 2.40371ZM14.2751 2.06554C13.3837 1.58206 11.8905 1.04454 10.8301 0.929059L10.6136 2.9173C11.3546 2.998 12.5975 3.43088 13.3215 3.82358L14.2751 2.06554ZM10.8301 0.929057C10.6955 0.914411 10.5597 0.917623 10.426 0.938633L10.7365 2.91439C10.6958 2.92078 10.6544 2.92175 10.6136 2.91731L10.8301 0.929057ZM10.426 0.938631C9.9672 1.01073 9.61881 1.23577 9.41969 1.38619L10.6252 2.98205C10.6612 2.95483 10.6914 2.93604 10.7152 2.92424C10.7388 2.91252 10.7454 2.91299 10.7365 2.91439L10.426 0.938631ZM9.41965 1.38621C9.19746 1.55407 9.0072 1.74766 8.85505 1.92621L10.3773 3.22338C10.4632 3.12264 10.5492 3.03942 10.6252 2.98203L9.41965 1.38621ZM8.85504 1.92622C8.63539 2.184 8.40993 2.51156 8.25519 2.85164L10.0756 3.67997C10.1364 3.54643 10.2487 3.37436 10.3773 3.22337L8.85504 1.92622ZM9.27886 2.27226C8.87916 2.22661 8.45221 2.20002 8 2.20002V4.20002C8.3737 4.20002 8.72484 4.22199 9.05191 4.25935L9.27886 2.27226ZM8 2.20002C7.54679 2.20002 7.11892 2.22673 6.71842 2.27257L6.94586 4.2596C7.27356 4.22209 7.62546 4.20002 8 4.20002V2.20002ZM7.74239 2.85203C7.58764 2.51182 7.36209 2.1841 7.14236 1.92622L5.62006 3.22337C5.74876 3.37441 5.86113 3.54657 5.92189 3.68014L7.74239 2.85203ZM7.14235 1.92621C6.9902 1.74766 6.79995 1.55408 6.57775 1.38621L5.37219 2.98203C5.44816 3.03942 5.53422 3.12264 5.62007 3.22338L7.14235 1.92621ZM6.57772 1.38619C6.37859 1.23577 6.0302 1.01073 5.57134 0.938629L5.2609 2.91439C5.25202 2.91299 5.25863 2.91253 5.28221 2.92424C5.30597 2.93604 5.33618 2.95483 5.37222 2.98205L6.57772 1.38619ZM10.856 12.7228C10.9019 12.7943 10.9516 12.8711 11.003 12.9499L12.6781 11.8572C12.6294 11.7826 12.5822 11.7096 12.5384 11.6414L10.856 12.7228ZM11.0034 12.9506C11.1457 13.1682 11.291 13.3842 11.4094 13.5501L13.0371 12.3879C12.9414 12.2538 12.813 12.0636 12.6777 11.8565L11.0034 12.9506ZM12.4476 13.9435C12.9905 13.8185 13.6179 13.5497 14.1948 13.2041L13.1669 11.4884C12.7243 11.7536 12.2919 11.927 11.9989 11.9945L12.4476 13.9435ZM14.1949 13.2041C14.8308 12.823 15.4275 12.3351 15.7652 11.8239L14.0964 10.7216C13.9933 10.8777 13.6823 11.1796 13.1669 11.4885L14.1949 13.2041ZM15.9305 11.2509C15.8942 9.58883 15.6893 7.84898 15.3252 6.39346L13.385 6.87876C13.7059 8.16186 13.8972 9.7497 13.931 11.2947L15.9305 11.2509ZM15.3252 6.39355C15.2102 5.93343 15.0079 5.29586 14.7638 4.69097L12.9092 5.43955C13.1198 5.96152 13.2931 6.51114 13.385 6.87867L15.3252 6.39355ZM14.7638 4.69097C14.5422 4.14209 14.2754 3.59313 13.9929 3.22545L12.4068 4.44376C12.5185 4.58906 12.704 4.93137 12.9092 5.43955L14.7638 4.69097ZM13.6592 2.9463C12.8921 2.54975 11.7033 2.13102 10.8638 2.00856L10.5751 3.98761C11.1513 4.07167 12.1276 4.40597 12.7406 4.72291L13.6592 2.9463ZM10.2007 2.14319C10.1559 2.17034 10.1098 2.20166 10.0621 2.23774L11.2687 3.83273C11.2652 3.8354 11.2551 3.84279 11.2383 3.85297L10.2007 2.14319ZM10.0626 2.23732C9.91836 2.3463 9.78369 2.48103 9.66694 2.61804L11.1892 3.91519C11.2125 3.88788 11.2328 3.86657 11.2484 3.85135C11.2648 3.83542 11.2718 3.83039 11.2682 3.83315L10.0626 2.23732ZM9.66694 2.61804C9.58749 2.71127 9.5172 2.80436 9.45648 2.89283L11.1055 4.02455C11.1295 3.98952 11.1578 3.95207 11.1892 3.91519L9.66694 2.61804ZM10.0532 4.43241C10.404 4.51445 10.7121 4.61008 10.974 4.70528L11.6573 2.82564C11.3263 2.70532 10.9421 2.58634 10.5087 2.48497L10.0532 4.43241ZM10.9738 4.70524C11.3193 4.83086 11.5838 4.9556 11.759 5.04705L12.6843 3.27398C12.4391 3.14599 12.0939 2.98442 11.6574 2.82569L10.9738 4.70524ZM11.7594 5.04727C11.8468 5.0928 11.9119 5.13013 11.9543 5.15533L12.9771 3.43668C12.9051 3.39382 12.8071 3.33799 12.6839 3.27376L11.7594 5.04727ZM11.9529 5.15449C11.9753 5.16786 11.99 5.177 11.9971 5.18152L13.0685 3.49273C13.0434 3.4768 13.0131 3.45817 12.9785 3.43752L11.9529 5.15449ZM11.9952 5.18035L12.0149 5.19286L13.09 3.50641L13.0704 3.4939L11.9952 5.18035ZM12.0023 5.18475L12.0085 5.18882L13.1087 3.5186L13.1025 3.51452L12.0023 5.18475ZM12.0094 5.18942L12.0117 5.19089L13.11 3.51947L13.1078 3.518L12.0094 5.18942ZM12.0397 5.20862L12.0406 5.20921L13.083 3.50233L13.082 3.50174L12.0397 5.20862ZM12.0799 5.23198C12.0795 5.23175 12.0752 5.22938 12.0713 5.22722C12.0675 5.22506 12.0565 5.21872 12.0494 5.2145C12.0311 5.20356 12.0023 5.18564 11.9688 5.16097C11.8987 5.10937 11.8083 5.02862 11.7291 4.90946C11.5606 4.65605 11.5539 4.40295 11.5656 4.26866C11.5765 4.14389 11.6088 4.05066 11.6211 4.01654C11.6366 3.97355 11.6519 3.94063 11.6599 3.92391C11.6759 3.89043 11.6904 3.86531 11.6946 3.85795C11.7007 3.8473 11.7057 3.83903 11.7082 3.83498C11.716 3.82221 11.7222 3.8128 11.7195 3.81703C11.7177 3.81975 11.7111 3.82977 11.6936 3.85623C11.6595 3.90763 11.5903 4.01178 11.4502 4.2219L13.1145 5.33113C13.2545 5.121 13.3251 5.01483 13.3608 4.96095C13.3782 4.93477 13.3889 4.9184 13.3958 4.90789C13.3973 4.9055 13.4057 4.89276 13.4145 4.87831C13.4172 4.87383 13.4225 4.86525 13.4287 4.85436C13.4331 4.84675 13.4476 4.82147 13.4637 4.78788C13.4717 4.77111 13.487 4.73815 13.5025 4.69512C13.5148 4.66096 13.5471 4.56771 13.558 4.44292C13.5698 4.30862 13.563 4.05551 13.3946 3.80209C13.3153 3.68293 13.2249 3.60218 13.1548 3.55057C13.1213 3.52591 13.0926 3.50798 13.0742 3.49704C13.0671 3.49282 13.0561 3.48648 13.0523 3.48431C13.0484 3.48216 13.0442 3.47979 13.0437 3.47955L12.0799 5.23198ZM13.1153 5.3298L13.3948 4.90905L11.7288 3.80248L11.4494 4.22323L13.1153 5.3298ZM12.007 5.18776C11.7944 5.04599 11.7342 4.75739 11.8784 4.5411L13.5424 5.65063C14.0135 4.94418 13.8192 3.99231 13.1166 3.52378L12.007 5.18776ZM11.8784 4.54111C12.021 4.3272 12.3099 4.26891 12.5244 4.41098L11.4201 6.07845C12.1244 6.54492 13.0736 6.35374 13.5424 5.65061L11.8784 4.54111ZM12.5229 4.40998L12.5219 4.40928L11.4205 6.07875L11.4216 6.07945L12.5229 4.40998ZM12.6783 4.53691C12.6657 4.52432 12.7346 4.58905 12.796 4.67865C12.8702 4.78683 12.9266 4.91487 12.9536 5.05745C13.0003 5.30304 12.9405 5.49508 12.9255 5.54287C12.904 5.6114 12.8798 5.66215 12.8712 5.67983C12.86 5.70293 12.8503 5.7208 12.8452 5.72996C12.835 5.7483 12.8264 5.76224 12.8239 5.76637C12.8203 5.7723 12.8174 5.77689 12.816 5.7791C12.8116 5.78594 12.8086 5.79053 12.8112 5.78653C12.8143 5.78179 12.8223 5.76972 12.8408 5.74188C12.8772 5.68707 12.9507 5.57667 13.0987 5.3548L11.4347 4.24525C11.2867 4.46713 11.2124 4.57867 11.1751 4.6349C11.1567 4.66257 11.1463 4.67828 11.1402 4.68747C11.1383 4.69043 11.133 4.69851 11.1275 4.70712C11.1258 4.70976 11.1227 4.71469 11.1189 4.72086C11.1162 4.72525 11.1076 4.73935 11.0973 4.75781C11.0922 4.76703 11.0824 4.78494 11.0712 4.80807C11.0626 4.82579 11.0384 4.87656 11.0169 4.94511C11.0019 4.99292 10.9421 5.18497 10.9888 5.43057C11.0158 5.57315 11.0722 5.70119 11.1464 5.80937C11.2078 5.89898 11.2767 5.96371 11.2641 5.95112L12.6783 4.53691ZM11.4342 4.24601L11.1387 4.69L12.8037 5.79803L13.0992 5.35404L11.4342 4.24601ZM12.5047 4.3982L12.4967 4.39315L11.4297 6.08478L11.4377 6.08983L12.5047 4.3982ZM12.4985 4.39431C12.4825 4.38417 12.4603 4.37039 12.432 4.3535L11.4076 6.07125C11.42 6.07866 11.4268 6.08295 11.4279 6.08363L12.4985 4.39431ZM12.4311 4.35301C12.3756 4.31994 12.2952 4.274 12.1908 4.21956L11.2659 5.99284C11.3345 6.02864 11.3823 6.05619 11.4084 6.07174L12.4311 4.35301ZM12.1909 4.21965C11.9829 4.11108 11.6807 3.96915 11.2927 3.82811L10.6093 5.70773C10.9062 5.81566 11.1277 5.92075 11.2657 5.99275L12.1909 4.21965ZM11.2928 3.82813C10.5169 3.54597 9.39612 3.26669 8 3.26669V5.26669C9.12704 5.26669 10.0159 5.49192 10.6093 5.70771L11.2928 3.82813ZM8 3.26669C6.60388 3.26669 5.48311 3.54597 4.70719 3.82812L5.39067 5.70771C5.9841 5.49192 6.87297 5.26669 8 5.26669V3.26669ZM4.7072 3.82812C4.31928 3.96918 4.01711 4.11111 3.80912 4.21962L4.73429 5.99278C4.87237 5.92073 5.09385 5.81564 5.39066 5.70772L4.7072 3.82812ZM3.80912 4.21963C3.7051 4.2739 3.62455 4.31986 3.56851 4.35324L4.59201 6.07151C4.61759 6.05627 4.66536 6.02874 4.73429 5.99277L3.80912 4.21963ZM3.56847 4.35326C3.54047 4.36995 3.51855 4.3835 3.50288 4.3934L4.57062 6.08453C4.57207 6.08362 4.57926 6.0791 4.59204 6.07149L3.56847 4.35326ZM3.49834 4.39629L3.49001 4.40161L4.56683 6.08697L4.57516 6.08165L3.49834 4.39629ZM4.58312 6.07634C4.58316 6.07631 4.58311 6.07635 4.58314 6.07633C4.58316 6.07631 4.58313 6.07633 4.58315 6.07632C3.1964 5.79897 3.47375 4.41222 3.47375 4.41222C3.47375 4.41222 3.47375 4.41222 3.47375 4.41222C3.47375 4.41222 3.47375 4.41222 3.47375 4.41222C3.47375 4.41222 3.47375 4.41222 3.47375 4.41222C3.47374 4.41223 3.47373 4.41223 3.47372 4.41224C3.47371 4.41225 3.47369 4.41226 3.47369 4.41226C3.47369 4.41226 3.47369 4.41226 3.47369 4.41226C3.47369 4.41226 3.47369 4.41226 3.47369 4.41226C3.47369 4.41226 3.47369 4.41226 3.47369 4.41226H3.47369C3.47369 4.41226 3.47369 4.41226 3.47369 4.41226C3.47369 4.41226 3.47369 4.41226 3.47369 4.41226C3.47369 4.41226 3.19634 5.79901 4.58309 6.07636C4.58309 6.07636 4.58309 6.07636 4.58309 6.07636C4.58309 6.07636 4.58309 6.07636 4.58309 6.07636C4.58309 6.07636 4.58309 6.07636 4.58309 6.07636C4.58309 6.07636 4.58309 6.07636 4.58309 6.07636C4.58309 6.07636 4.58309 6.07636 4.58309 6.07636C4.58309 6.07636 4.58309 6.07636 4.58309 6.07636C4.5831 6.07636 4.58309 6.07636 4.58309 6.07636C4.58309 6.07636 4.5831 6.07636 4.5831 6.07636C4.58378 6.0759 4.58242 6.07681 4.5831 6.07635C4.5831 6.07635 4.5831 6.07635 4.5831 6.07635C4.5831 6.07635 4.5831 6.07636 4.5831 6.07635C4.5831 6.07635 4.5831 6.07635 4.5831 6.07635C4.5831 6.07635 4.5831 6.07635 4.5831 6.07635C4.58311 6.07635 4.5831 6.07635 4.58311 6.07635C4.58311 6.07635 4.5831 6.07635 4.58311 6.07635C4.58311 6.07635 4.58311 6.07635 4.58311 6.07635L4.58311 6.07635H4.58311C4.58311 6.07635 4.58311 6.07635 4.58311 6.07635L4.58311 6.07635C4.58312 6.07634 4.58311 6.07635 4.58311 6.07634C4.58313 6.07633 4.5831 6.07635 4.58312 6.07634L3.47372 4.41224C3.47368 4.41227 3.47373 4.41224 3.47369 4.41226C3.47369 4.41226 3.47369 4.41226 3.47369 4.41226C3.47369 4.41226 3.47369 4.41226 3.47369 4.41226C3.47369 4.41226 3.47369 4.41226 3.47369 4.41226C4.86044 4.68961 4.58309 6.07636 4.58309 6.07636C4.58309 6.07636 4.58309 6.07636 4.58309 6.07636C4.58309 6.07636 4.58309 6.07636 4.58309 6.07636C4.58309 6.07636 4.58311 6.07635 4.58312 6.07634C4.58314 6.07633 4.58314 6.07633 4.58315 6.07632C4.58315 6.07632 4.58315 6.07632 4.58315 6.07632C4.58315 6.07632 4.58315 6.07632 4.58315 6.07632C4.58315 6.07632 4.8605 4.68957 3.47375 4.41222C3.47375 4.41222 3.47375 4.41222 3.47375 4.41222C3.47375 4.41222 3.47375 4.41222 3.47375 4.41222C3.47375 4.41222 3.47374 4.41222 3.47374 4.41223C3.47333 4.4125 3.47415 4.41195 3.47374 4.41223C3.47373 4.41223 3.47374 4.41223 3.47373 4.41223C3.47373 4.41223 3.47373 4.41223 3.47373 4.41224C3.47325 4.41255 3.4742 4.41192 3.47372 4.41224C3.47372 4.41224 3.47372 4.41224 3.47372 4.41224L4.58312 6.07634ZM3.47482 4.41151C3.68962 4.26872 3.97904 4.32727 4.12164 4.54117L2.45753 5.65056C2.92663 6.35423 3.87717 6.54563 4.58201 6.07708L3.47482 4.41151ZM4.12162 4.54115C4.26458 4.75558 4.20666 5.04535 3.99217 5.18834L2.88282 3.5242C2.17815 3.99395 1.9878 4.94599 2.45754 5.65058L4.12162 4.54115ZM2.60545 4.91097L2.90129 5.35473L4.56538 4.24532L4.26954 3.80156L2.60545 4.91097ZM4.56538 4.24532C4.41737 4.02331 4.34329 3.91228 4.30623 3.85674C4.28738 3.82849 4.27879 3.81562 4.27476 3.80956C4.27145 3.80458 4.27419 3.80865 4.27785 3.81431C4.27909 3.81624 4.28215 3.82099 4.28602 3.82718C4.28834 3.8309 4.29862 3.84732 4.31071 3.86898C4.31667 3.87967 4.32918 3.90246 4.34316 3.93231C4.35316 3.95369 4.38608 4.0245 4.40947 4.12124C4.42952 4.20415 4.48391 4.4666 4.35001 4.76532C4.21264 5.07177 3.95326 5.21363 3.98075 5.19584L2.89424 3.5167C2.92173 3.49892 2.66234 3.64078 2.52497 3.94724C2.39107 4.24596 2.44545 4.50842 2.46551 4.59134C2.48891 4.68811 2.52183 4.75894 2.53185 4.78035C2.54584 4.81023 2.55837 4.83307 2.56437 4.84381C2.57652 4.86559 2.5869 4.88218 2.58938 4.88615C2.5934 4.89259 2.59667 4.89767 2.5982 4.90003C2.60299 4.90744 2.60802 4.91499 2.60932 4.91695C2.61452 4.92476 2.62443 4.93962 2.64259 4.96682C2.67953 5.02219 2.75346 5.13299 2.90129 5.35473L4.56538 4.24532ZM3.9922 5.18832L3.99383 5.18723L2.88443 3.52313L2.8828 3.52422L3.9922 5.18832ZM3.99013 5.18968L3.99236 5.18821L2.89035 3.51921L2.88812 3.52068L3.99013 5.18968ZM3.98809 5.19101L3.99433 5.18694L2.90086 3.51233L2.89462 3.51641L3.98809 5.19101ZM3.98641 5.19206L4.00598 5.17955L2.92834 3.4947L2.90878 3.50721L3.98641 5.19206ZM4.00136 5.18248C4.01025 5.17687 4.02524 5.16755 4.04618 5.15508L3.02248 3.43693C2.98631 3.45848 2.95642 3.47694 2.93296 3.49177L4.00136 5.18248ZM4.04618 5.15508C4.08793 5.1302 4.15318 5.09285 4.24087 5.0471L3.31572 3.27393C3.19305 3.33794 3.09495 3.39375 3.02248 3.43693L4.04618 5.15508ZM4.24084 5.04711C4.41623 4.95561 4.68076 4.83086 5.02616 4.70525L4.34263 2.82568C3.90613 2.98442 3.56097 3.14599 3.31575 3.27392L4.24084 5.04711ZM5.02613 4.70526C5.28739 4.61026 5.59479 4.51482 5.94475 4.43288L5.48879 2.48555C5.05639 2.58679 4.67302 2.70554 4.34267 2.82567L5.02613 4.70526ZM6.54145 2.89361C6.48064 2.80495 6.41016 2.71156 6.33043 2.618L4.8082 3.91523C4.83966 3.95215 4.868 3.98968 4.89209 4.02482L6.54145 2.89361ZM6.33047 2.61804C6.21372 2.48103 6.07902 2.34628 5.93472 2.23728L4.72929 3.83319C4.72562 3.83042 4.73261 3.83544 4.74899 3.85136C4.76465 3.86658 4.78489 3.88787 4.80816 3.91519L6.33047 2.61804ZM5.93477 2.23732C5.88735 2.2015 5.84146 2.17037 5.797 2.14337L4.7588 3.8528C4.74226 3.84275 4.73243 3.83557 4.72924 3.83315L5.93477 2.23732ZM5.13353 2.00856C4.29417 2.13102 3.10524 2.54974 2.33823 2.94632L3.2568 4.72289C3.86975 4.40598 4.84608 4.07167 5.42227 3.98761L5.13353 2.00856ZM2.0045 3.22541C1.72205 3.59309 1.45513 4.14205 1.23357 4.69098L3.08821 5.43954C3.2933 4.9314 3.47892 4.5891 3.59054 4.4438L2.0045 3.22541ZM1.23357 4.69099C0.989412 5.29593 0.78724 5.93346 0.672183 6.39346L2.61241 6.87876C2.70437 6.51111 2.87756 5.96145 3.08821 5.43954L1.23357 4.69099ZM0.67218 6.39347C0.308135 7.84898 0.103218 9.58882 0.0668976 11.2509L2.06642 11.2946C2.10018 9.7497 2.29149 8.16186 2.61241 6.87875L0.67218 6.39347ZM0.232175 11.8238C0.569805 12.3351 1.16662 12.823 1.80255 13.2041L2.83054 11.4885C2.3151 11.1796 2.00415 10.8777 1.90114 10.7217L0.232175 11.8238ZM1.80262 13.2041C2.37952 13.5497 3.0069 13.8185 3.54985 13.9435L3.99849 11.9945C3.70547 11.927 3.27308 11.7536 2.83047 11.4884L1.80262 13.2041ZM4.58803 13.55C4.70647 13.3841 4.85175 13.1682 4.994 12.9505L3.31971 11.8566C3.18444 12.0636 3.05601 12.2539 2.9603 12.3879L4.58803 13.55ZM4.99424 12.9502C5.04581 12.8712 5.09579 12.794 5.14228 12.7216L3.45934 11.6409C3.4157 11.7089 3.36845 11.7819 3.31947 11.8569L4.99424 12.9502ZM4.66314 11.2492C4.57511 11.215 4.49234 11.1806 4.41468 11.1464L3.60856 12.9767C3.71352 13.023 3.82347 13.0686 3.93849 13.1133L4.66314 11.2492ZM4.41497 11.1465C4.05106 10.9861 3.7945 10.8283 3.63353 10.7151L2.48326 12.3512C2.7468 12.5365 3.11797 12.7605 3.60827 12.9766L4.41497 11.1465ZM3.63291 10.7147C3.55255 10.6582 3.49593 10.6129 3.46163 10.5838L2.16884 12.1098C2.2476 12.1765 2.35209 12.2591 2.48387 12.3516L3.63291 10.7147ZM3.46079 10.5831C3.44452 10.5693 3.43297 10.5589 3.42592 10.5524L2.07062 12.0232C2.09644 12.047 2.12942 12.0765 2.16968 12.1105L3.46079 10.5831ZM3.42615 10.5526C3.42331 10.55 3.42144 10.5482 3.42049 10.5473L2.03543 11.9901C2.04514 11.9994 2.0568 12.0105 2.07039 12.023L3.42615 10.5526ZM3.42448 10.5512L3.41756 10.5445L2.02451 11.9795L2.03144 11.9863L3.42448 10.5512ZM3.41348 10.5405L3.41081 10.538L2.02593 11.9809L2.0286 11.9835L3.41348 10.5405ZM3.43862 10.5657L3.43749 10.5645L1.997 11.952L1.99813 11.9532L3.43862 10.5657ZM3.37342 10.5037C3.37357 10.5038 3.3762 10.5061 3.37867 10.5083C3.38111 10.5104 3.38825 10.5168 3.39291 10.5211C3.40488 10.532 3.42366 10.5498 3.4454 10.5729C3.48999 10.6202 3.54999 10.6932 3.60259 10.7934C3.72004 11.017 3.73121 11.2398 3.70614 11.4068C3.68456 11.5504 3.63643 11.6553 3.61381 11.7011C3.58783 11.7537 3.56255 11.7931 3.54863 11.8139C3.52109 11.8551 3.49652 11.885 3.48881 11.8943C3.47804 11.9074 3.4692 11.9174 3.46467 11.9225C3.45555 11.9327 3.44845 11.9402 3.44671 11.9421C3.44405 11.9449 3.44233 11.9467 3.44225 11.9467C3.44209 11.9469 3.44405 11.9449 3.44973 11.9391C3.45514 11.9336 3.46299 11.9257 3.47419 11.9144C3.51935 11.8688 3.61202 11.7757 3.80051 11.5872L2.3862 10.1731C2.19757 10.3617 2.10207 10.4576 2.05339 10.5068C2.02996 10.5304 2.01422 10.5464 2.00349 10.5575C2.00131 10.5598 1.98684 10.5747 1.97106 10.5924C1.96618 10.5979 1.95708 10.6082 1.94612 10.6215C1.93823 10.631 1.91354 10.6611 1.88593 10.7024C1.88563 10.7028 1.76473 10.8673 1.72832 11.1097C1.70324 11.2767 1.71442 11.4995 1.83187 11.7232C1.88448 11.8233 1.94447 11.8963 1.98907 11.9437C2.01081 11.9668 2.02959 11.9845 2.04156 11.9955C2.04623 11.9997 2.05336 12.0061 2.05581 12.0083C2.05828 12.0104 2.06091 12.0127 2.06106 12.0129L3.37342 10.5037ZM2.3862 10.1731L2.00908 10.5502L3.42339 11.9644L3.80051 11.5872L2.3862 10.1731ZM3.42342 10.5503C3.6055 10.7324 3.60568 11.0278 3.42329 11.2102L2.00919 9.79587C1.41024 10.3947 1.41042 11.3656 2.00906 11.9643L3.42342 10.5503ZM3.42334 11.2101C3.24203 11.3915 2.94873 11.3924 2.76614 11.2129L4.16823 9.78664C3.56856 9.19713 2.60482 9.20023 2.00913 9.79593L3.42334 11.2101ZM2.78404 11.23L2.78817 11.2339L4.15445 9.77333L4.15032 9.76947L2.78404 11.23ZM2.79349 11.2389C2.80936 11.2535 2.83083 11.2727 2.85809 11.2957L4.15073 9.76961C4.14494 9.7647 4.14446 9.76409 4.14912 9.76839L2.79349 11.2389ZM2.85823 11.2959C2.91343 11.3426 2.99243 11.4053 3.09666 11.4786L4.24666 9.8423C4.19305 9.80462 4.16147 9.77871 4.15058 9.76949L2.85823 11.2959ZM3.09661 11.4786C3.30564 11.6255 3.61569 11.8142 4.03839 12.0005L4.84514 10.1704C4.54871 10.0398 4.35318 9.91717 4.24671 9.84233L3.09661 11.4786ZM4.03854 12.0006C4.8859 12.3739 6.1768 12.7335 8.00002 12.7335V10.7335C6.44776 10.7335 5.43216 10.4291 4.84499 10.1704L4.03854 12.0006ZM8.00002 12.7335C9.82325 12.7335 11.1142 12.3739 11.9615 12.0006L11.1551 10.1704C10.5679 10.4291 9.55231 10.7335 8.00002 10.7335V12.7335ZM11.9617 12.0005C12.3844 11.8142 12.6944 11.6255 12.9035 11.4786L11.7534 9.84231C11.6469 9.91716 11.4514 10.0397 11.1549 10.1704L11.9617 12.0005ZM12.9034 11.4786C13.0079 11.4052 13.0868 11.3425 13.1415 11.2962L11.8499 9.76916C11.8385 9.77882 11.8068 9.80479 11.7535 9.84226L12.9034 11.4786ZM13.1418 11.2959C13.1682 11.2736 13.1912 11.2532 13.2101 11.2356L11.8474 9.77163C11.8498 9.76943 11.8515 9.76789 11.8524 9.76706C11.8534 9.76618 11.8539 9.76573 11.8539 9.7657C11.854 9.76565 11.8525 9.76691 11.8496 9.7694L13.1418 11.2959ZM13.2081 11.2375L13.2122 11.2336L11.8536 9.76591L11.8494 9.76977L13.2081 11.2375ZM13.234 11.2129C13.0513 11.3924 12.758 11.3914 12.5768 11.2102L13.9908 9.79582C13.3952 9.20033 12.4316 9.19706 11.8318 9.78667L13.234 11.2129ZM12.5767 11.2101C12.3944 11.0277 12.3946 10.7325 12.5766 10.5504L13.9911 11.9642C14.5896 11.3655 14.5897 10.3948 13.991 9.79598L12.5767 11.2101ZM13.9909 10.5502L13.6191 10.1784L12.2049 11.5926L12.5767 11.9644L13.9909 10.5502ZM12.2049 11.5926C12.391 11.7787 12.4842 11.8718 12.5309 11.9184C12.5549 11.9424 12.5651 11.9525 12.5695 11.957C12.5747 11.9622 12.5673 11.9549 12.5585 11.9456C12.5556 11.9425 12.5484 11.935 12.5396 11.9251C12.5344 11.9194 12.5105 11.8929 12.4832 11.8564C12.4698 11.8384 12.4412 11.7992 12.4112 11.7455C12.3875 11.7033 12.3209 11.5799 12.2948 11.405C12.2617 11.183 12.3001 10.9122 12.4723 10.6731C12.5428 10.5751 12.6162 10.5107 12.6599 10.4758C12.6823 10.458 12.701 10.4446 12.7119 10.437C12.7162 10.434 12.7227 10.4296 12.7249 10.4281C12.727 10.4267 12.7291 10.4253 12.7291 10.4253L13.8385 12.0894C13.8385 12.0894 13.8407 12.0879 13.8428 12.0865C13.845 12.085 13.8515 12.0806 13.8558 12.0776C13.8667 12.07 13.8854 12.0566 13.9078 12.0388C13.9515 12.0039 14.0249 11.9395 14.0954 11.8415C14.2676 11.6023 14.306 11.3316 14.2729 11.1096C14.2468 10.9347 14.1802 10.8112 14.1565 10.7689C14.1265 10.7152 14.0979 10.676 14.0844 10.658C14.057 10.6214 14.033 10.5948 14.0276 10.5888C14.0186 10.5787 14.0112 10.5709 14.0079 10.5675C13.9977 10.5567 13.9874 10.5464 13.9868 10.5458C13.9797 10.5387 13.9666 10.5256 13.9441 10.5031C13.8977 10.4568 13.8048 10.3641 13.6191 10.1784L12.2049 11.5926ZM12.6153 10.5136L12.6142 10.5146L13.9513 12.0019L13.9524 12.001L12.6153 10.5136ZM12.5425 10.586L12.5414 10.5871L14.022 11.9317L14.0231 11.9306L12.5425 10.586ZM12.5893 10.5379L12.5867 10.5405L13.9714 11.9835L13.9741 11.981L12.5893 10.5379ZM12.583 10.544L12.5761 10.5507L13.9681 11.9867L13.9751 11.98L12.583 10.544ZM12.5796 10.5473C12.5771 10.5497 12.5775 10.5493 12.5786 10.5483L13.9249 12.0273C13.9426 12.0112 13.9565 11.998 13.9646 11.9901L12.5796 10.5473ZM12.5739 10.5526C12.5661 10.5598 12.5548 10.57 12.5393 10.5831L13.8304 12.1105C13.8714 12.0758 13.9045 12.0461 13.9296 12.023L12.5739 10.5526ZM12.5385 10.5838C12.5041 10.6129 12.4476 10.6582 12.3674 10.7145L13.5159 12.3518C13.648 12.2592 13.7525 12.1765 13.8312 12.1098L12.5385 10.5838ZM12.3665 10.7151C12.2055 10.8283 11.949 10.9861 11.5851 11.1465L12.3918 12.9766C12.8822 12.7605 13.2533 12.5365 13.5168 12.3512L12.3665 10.7151ZM11.5851 11.1465C11.5069 11.181 11.4237 11.2156 11.3355 11.2498L12.0588 13.1144C12.1752 13.0693 12.2862 13.0232 12.3919 12.9766L11.5851 11.1465ZM5.08532 8.16017C5.16492 8.07444 5.25753 8.04037 5.33816 8.03999L5.32866 6.04001C4.67263 6.04313 4.05987 6.32527 3.61973 6.79926L5.08532 8.16017ZM5.32866 8.03999C5.4093 8.04037 5.50191 8.07444 5.58151 8.16017L7.0471 6.79926C6.60696 6.32526 5.99419 6.04313 5.33816 6.04001L5.32866 8.03999ZM5.5815 8.16015C5.66328 8.24823 5.72008 8.38134 5.72008 8.53334H7.72008C7.72008 7.89549 7.48507 7.27095 7.04711 6.79928L5.5815 8.16015ZM5.72008 8.53334C5.72008 8.68532 5.66329 8.81843 5.5815 8.90651L7.04711 10.2674C7.48507 9.79572 7.72008 9.17118 7.72008 8.53334H5.72008ZM5.58151 8.90649C5.50191 8.99222 5.40929 9.0263 5.32863 9.02668L5.33819 11.0267C5.99419 11.0235 6.60695 10.7414 7.0471 10.2674L5.58151 8.90649ZM5.33819 9.02668C5.25754 9.0263 5.16492 8.99222 5.08532 8.90649L3.61973 10.2674C4.05987 10.7414 4.67262 11.0235 5.32863 11.0267L5.33819 9.02668ZM5.08532 8.90649C5.00353 8.81842 4.94674 8.68532 4.94674 8.53334H2.94674C2.94674 9.17118 3.18175 9.79573 3.61973 10.2674L5.08532 8.90649ZM4.94674 8.53334C4.94674 8.38134 5.00354 8.24824 5.08532 8.16017L3.61973 6.79926C3.18175 7.27094 2.94674 7.89549 2.94674 8.53334H4.94674ZM10.6607 6.04001C10.0047 6.04313 9.39191 6.32527 8.95177 6.79925L10.4173 8.16018C10.497 8.07444 10.5896 8.04037 10.6702 8.03999L10.6607 6.04001ZM8.95174 6.79928C8.51378 7.27095 8.27878 7.89549 8.27878 8.53334H10.2788C10.2788 8.38134 10.3356 8.24823 10.4174 8.16015L8.95174 6.79928ZM8.27878 8.53334C8.27878 9.17118 8.51378 9.79572 8.95174 10.2674L10.4174 8.90651C10.3356 8.81843 10.2788 8.68532 10.2788 8.53334H8.27878ZM8.95177 10.2674C9.39191 10.7414 10.0046 11.0235 10.6607 11.0267L10.6702 9.02668C10.5896 9.0263 10.4969 8.99222 10.4173 8.90648L8.95177 10.2674ZM10.6702 11.0267C11.3263 11.0235 11.939 10.7414 12.3791 10.2674L10.9135 8.90654C10.8339 8.99223 10.7413 9.0263 10.6607 9.02668L10.6702 11.0267ZM12.379 10.2675C12.8171 9.79581 13.0522 9.17123 13.0522 8.53334H11.0522C11.0522 8.68527 10.9954 8.81834 10.9136 8.9064L12.379 10.2675ZM13.0522 8.53334C13.0522 7.89544 12.8171 7.27085 12.379 6.79917L10.9136 8.16026C10.9954 8.24832 11.0522 8.38139 11.0522 8.53334H13.0522ZM12.3791 6.79931C11.939 6.32528 11.3263 6.04313 10.6702 6.04001L10.6607 8.03999C10.7414 8.04037 10.8339 8.07443 10.9135 8.16012L12.3791 6.79931Z" fill="currentColor" mask="url(#path-2-inside-1_2123_4346)"/>
</g>
</g>
<defs>
<clipPath id="clip0_2123_4346">
<rect width="16" height="16" fill="white"/>
</clipPath>
</defs>
</svg>
