<svg width="16" height="16" viewBox="0 0 16 16" fill="none" xmlns="http://www.w3.org/2000/svg">
<g id="OpenAI_Logo 1" clip-path="url(#clip0_647_23601)">
<path id="Vector" d="M14.6181 6.59812C14.9629 5.58307 14.8442 4.47114 14.2926 3.54786C13.4632 2.13174 11.7957 1.40318 10.1672 1.74603C9.44278 0.945734 8.40193 0.490618 7.31072 0.497139C5.64612 0.493413 4.16917 1.54433 3.65706 3.0974C2.5877 3.31215 1.66466 3.96851 1.12452 4.89877C0.288899 6.31117 0.479397 8.09157 1.59578 9.30273C1.25089 10.3178 1.36965 11.4297 1.9212 12.353C2.75065 13.7691 4.4181 14.4977 6.04659 14.1548C6.77058 14.9551 7.81191 15.4102 8.90311 15.4032C10.5687 15.4074 12.0461 14.3556 12.5582 12.8011C13.6276 12.5864 14.5506 11.93 15.0907 10.9997C15.9254 9.58735 15.7344 7.80834 14.6185 6.59719L14.6181 6.59812ZM8.90406 14.4292C8.23756 14.4301 7.59196 14.2014 7.08032 13.7826C7.1036 13.7705 7.14398 13.7486 7.1701 13.7328L10.1972 12.0185C10.352 11.9323 10.4471 11.7707 10.4461 11.596V7.41146L11.7254 8.13582C11.7392 8.14234 11.7482 8.15539 11.7501 8.17029V11.6356C11.7482 13.1766 10.4756 14.4259 8.90406 14.4292ZM2.78342 11.8657C2.44946 11.3002 2.32927 10.6373 2.44376 9.99402C2.46609 10.0071 2.50552 10.0308 2.53354 10.0467L5.56061 11.7609C5.71405 11.849 5.90408 11.849 6.058 11.7609L9.75347 9.6684V11.1171C9.75442 11.132 9.74729 11.1465 9.73541 11.1558L6.67557 12.8882C5.31263 13.6578 3.57202 13.2003 2.7839 11.8657H2.78342ZM1.98675 5.38649C2.31929 4.82004 2.84423 4.38682 3.46941 4.16183C3.46941 4.18745 3.46798 4.23263 3.46798 4.26431V7.69328C3.46703 7.86751 3.56204 8.02915 3.71644 8.11533L7.41191 10.2074L6.13258 10.9317C6.11975 10.9401 6.1036 10.9415 6.08935 10.9355L3.02903 9.20164C1.66894 8.4293 1.20243 6.72296 1.98628 5.38696L1.98675 5.38649ZM12.4979 7.78505L8.8024 5.69254L10.0817 4.96864C10.0946 4.96026 10.1107 4.95886 10.125 4.96492L13.1853 6.69734C14.5477 7.46922 15.0147 9.17835 14.2276 10.5144C13.8945 11.0799 13.3701 11.5131 12.7454 11.7386V8.2071C12.7468 8.03287 12.6523 7.8717 12.4983 7.78505H12.4979ZM13.771 5.90589C13.7487 5.89239 13.7093 5.86909 13.6812 5.85326L10.6542 4.139C10.5007 4.05096 10.3107 4.05096 10.1568 4.139L6.46132 6.23151V4.78278C6.46037 4.76787 6.46749 4.75343 6.47937 4.74411L9.53922 3.01309C10.9022 2.24214 12.6447 2.70098 13.4304 4.03792C13.7625 4.6025 13.8827 5.26351 13.7701 5.90589H13.771ZM5.76583 8.48799L4.48603 7.76363C4.47225 7.7571 4.46323 7.74406 4.46133 7.72915V4.26384C4.46228 2.72101 5.73876 1.47072 7.31215 1.47166C7.9777 1.47166 8.62188 1.70084 9.13352 2.11823C9.11024 2.13034 9.07033 2.15223 9.04373 2.16807L6.01666 3.88233C5.8618 3.96851 5.76679 4.12968 5.76774 4.30437L5.76583 8.48706V8.48799ZM6.46084 7.01876L8.10692 6.08664L9.75299 7.0183V8.88208L8.10692 9.81374L6.46084 8.88208V7.01876Z" fill="#3B82F6"/>
</g>
<defs>
<clipPath id="clip0_647_23601">
<rect width="16" height="16" fill="white"/>
</clipPath>
</defs>
</svg>
