<svg width="16" height="16" viewBox="0 0 16 16" fill="none" xmlns="http://www.w3.org/2000/svg">
<path fill-rule="evenodd" clip-rule="evenodd" d="M11.9931 2.5692C11.0211 2.244 9.6099 2.0244 8.0023 2.0244C6.3951 2.0244 4.9843 2.244 4.0119 2.5692C3.5207 2.7332 3.1987 2.906 3.0199 3.0472C2.9823 3.0768 2.9559 3.1008 2.9383 3.1192C2.9591 3.1876 3.0167 3.2772 3.1631 3.3872C3.3727 3.5448 3.7119 3.7004 4.1883 3.8348C5.1355 4.1012 6.4807 4.244 8.0027 4.244C9.5243 4.244 10.8695 4.1012 11.8167 3.8348C12.2931 3.7004 12.6327 3.5448 12.8419 3.3872C12.9883 3.2772 13.0459 3.1876 13.0667 3.1192C13.041 3.09355 13.0138 3.0695 12.9851 3.0472C12.8063 2.906 12.4843 2.7336 11.9931 2.5692ZM3.8971 4.8188C3.5431 4.7188 3.2131 4.598 2.9275 4.45V6.2072C2.9275 6.2856 2.9663 6.4128 3.1775 6.5836C3.3915 6.7568 3.7339 6.9312 4.2079 7.0844C5.1519 7.39 6.4919 7.5732 8.0023 7.5732C9.5135 7.5732 10.8535 7.39 11.7971 7.0844C12.2711 6.9312 12.6135 6.7564 12.8275 6.5836C13.0387 6.4128 13.0775 6.2856 13.0775 6.2076V4.45C12.7915 4.598 12.4619 4.7192 12.1079 4.8188C11.0279 5.1228 9.5735 5.2684 8.0023 5.2684C6.4315 5.2684 4.9767 5.1228 3.8971 4.8188ZM14.1275 6.2072V3.0488C14.1275 1.9172 11.3851 1 8.0023 1C4.6203 1 1.8775 1.9172 1.8775 3.0488V12.9512C1.8775 14.0828 4.6199 15 8.0027 15C11.3851 15 14.1275 14.0828 14.1275 12.9512V6.2072ZM13.0775 7.6536C12.7975 7.8108 12.4755 7.944 12.1275 8.0568C11.0443 8.4076 9.5843 8.5976 8.0023 8.5976C6.4207 8.5976 4.9607 8.4076 3.8775 8.0568C3.5295 7.944 3.2071 7.8108 2.9275 7.6536V9.3656C2.9275 9.444 2.9663 9.5712 3.1775 9.7424C3.3915 9.9152 3.7339 10.0896 4.2079 10.2432C5.1519 10.5484 6.4919 10.7316 8.0023 10.7316C9.5135 10.7316 10.8535 10.5484 11.7971 10.2432C12.2711 10.0896 12.6135 9.9152 12.8275 9.7424C13.0387 9.5712 13.0775 9.444 13.0775 9.366V7.6536ZM3.8775 11.2152C3.5295 11.1028 3.2071 10.9692 2.9275 10.8124V12.8696C2.9451 12.8888 2.9739 12.9164 3.0199 12.9528C3.1987 13.094 3.5207 13.2668 4.0119 13.4308C4.9839 13.756 6.3951 13.9756 8.0023 13.9756C9.6099 13.9756 11.0207 13.756 11.9931 13.4308C12.4843 13.2668 12.8063 13.094 12.9851 12.9528C13.018 12.9275 13.0489 12.8997 13.0775 12.8696V10.8124C12.7975 10.9692 12.4755 11.1028 12.1275 11.2152C11.0443 11.566 9.5843 11.756 8.0023 11.756C6.4207 11.756 4.9607 11.566 3.8775 11.2152ZM13.1015 12.8392L13.0975 12.8456C13.0985 12.8433 13.0998 12.8411 13.1015 12.8392ZM2.9035 12.8392L2.9075 12.8456C2.90584 12.8437 2.90449 12.8415 2.9035 12.8392ZM4.5023 6.5488C4.7923 6.5488 5.0275 6.3196 5.0275 6.0368C5.0275 5.7536 4.7923 5.5244 4.5023 5.5244C4.2127 5.5244 3.9775 5.7536 3.9775 6.0364C3.9775 6.3196 4.2123 6.5488 4.5023 6.5488ZM5.0275 9.2808C5.0275 9.5632 4.7923 9.7928 4.5023 9.7928C4.2127 9.7928 3.9775 9.5632 3.9775 9.2808C3.9775 8.9976 4.2127 8.7684 4.5027 8.7684C4.7923 8.7684 5.0275 8.998 5.0275 9.2808ZM4.5023 12.9512C4.7923 12.9512 5.0275 12.722 5.0275 12.4392C5.0275 12.156 4.7923 11.9272 4.5023 11.9272C4.2127 11.9272 3.9775 12.156 3.9775 12.4392C3.9775 12.722 4.2123 12.9512 4.5023 12.9512Z" fill="currentColor"/>
</svg>
