<svg width="16" height="16" viewBox="0 0 16 16" fill="none" xmlns="http://www.w3.org/2000/svg">
<path d="M10.72 1.42004H9.265V4.61804L10.72 4.62204V1.42004ZM7.36 3.26704L8.876 4.78404L7.844 5.80904L6.331 4.29604L7.36 3.26704ZM4.485 6.20004H7.687L7.682 7.65504H4.485V6.20004ZM6.333 9.56004L7.848 8.04404L8.874 9.07604L7.362 10.588L6.332 9.55904L6.333 9.56004ZM9.265 12.435V9.23304L10.72 9.23804V12.435H9.265ZM12.625 10.59L11.108 9.07304L12.14 8.04704L13.654 9.56104L12.624 10.59H12.625ZM15.5 7.65504H12.298L12.303 6.20004H15.5V7.65504ZM13.653 4.29604L12.137 5.81204L11.112 4.78004L12.625 3.26704L13.653 4.29604ZM2 1.74904V2.56904H1.178V3.88404H2V4.70504H3.314V3.88504H4.135V2.57004H3.314V1.74904H2ZM2 14.591V13.091H0.5V11.777H2V10.278H3.314V11.777H4.814V13.091H3.314V14.591H2Z" fill="currentColor"/>
</svg>
