<svg width="16" height="16" viewBox="0 0 16 16" fill="none" xmlns="http://www.w3.org/2000/svg">
<g id="neon logo monochrome">
<path id="Vector" fill-rule="evenodd" clip-rule="evenodd" d="M1 3.414C1 2.08 2.086 1 3.4255 1H12.6435C13.983 1 15.0685 2.0805 15.0685 3.414V11.215C15.0685 12.594 13.315 13.1925 12.4645 12.104L9.8055 8.6995V12.8275C9.8055 14.0275 8.828 15 7.622 15H3.4255C2.086 15 1 13.9195 1 12.586V3.414ZM3.4255 2.931C3.29722 2.931 3.17416 2.98182 3.08326 3.07235C2.99236 3.16287 2.94103 3.28572 2.9405 3.414V12.586C2.9405 12.853 3.158 13.069 3.4255 13.069H7.695C7.829 13.069 7.865 12.961 7.865 12.8275V7.2925C7.865 5.9125 9.6185 5.3145 10.469 6.403L13.1285 9.8075V3.414C13.1285 3.147 13.1535 2.931 12.886 2.931H3.4255Z" fill="#3B82F6"/>
</g>
</svg>
