<svg width="16" height="16" viewBox="0 0 16 16" fill="none" xmlns="http://www.w3.org/2000/svg">
<path d="M5.96648 5.96421C6.34061 5.96421 6.6439 5.66092 6.6439 5.28679C6.6439 4.91267 6.34061 4.60938 5.96648 4.60938C5.59235 4.60938 5.28906 4.91267 5.28906 5.28679C5.28906 5.66092 5.59235 5.96421 5.96648 5.96421Z" fill="#F8FAFC"/>
<path d="M10.029 5.96421C10.4031 5.96421 10.7064 5.66092 10.7064 5.28679C10.7064 4.91267 10.4031 4.60938 10.029 4.60938C9.65485 4.60938 9.35156 4.91267 9.35156 5.28679C9.35156 5.66092 9.65485 5.96421 10.029 5.96421Z" fill="#F8FAFC"/>
<path d="M4.38937 11.8387C3.7306 11.8387 3.09882 12.1004 2.633 12.5662C2.16719 13.032 1.90549 13.6638 1.90549 14.3226C1.90549 14.5022 1.97686 14.6745 2.10391 14.8016C2.23095 14.9286 2.40325 15 2.58291 15C2.76258 15 2.93488 14.9286 3.06192 14.8016C3.18896 14.6745 3.26033 14.5022 3.26033 14.3226C3.26033 14.0231 3.37928 13.736 3.59102 13.5242C3.80275 13.3125 4.08993 13.1935 4.38937 13.1935H11.6152C11.9146 13.1935 12.2018 13.3125 12.4135 13.5242C12.6253 13.736 12.7442 14.0231 12.7442 14.3226C12.7442 14.5022 12.8156 14.6745 12.9426 14.8016C13.0697 14.9286 13.242 15 13.4216 15C13.6013 15 13.7736 14.9286 13.9006 14.8016C14.0277 14.6745 14.099 14.5022 14.099 14.3226C14.099 13.6638 13.8374 13.032 13.3715 12.5662C12.9057 12.1004 12.2739 11.8387 11.6152 11.8387H8.67969V9.58064H11.3894C12.1679 9.58064 12.9146 9.27137 13.4651 8.72086C14.0156 8.17035 14.3248 7.4237 14.3248 6.64516V3.93548C14.3248 3.15695 14.0156 2.41029 13.4651 1.85978C12.9146 1.30927 12.1679 1 11.3894 1H4.61517C3.83663 1 3.08998 1.30927 2.53947 1.85978C1.98896 2.41029 1.67969 3.15695 1.67969 3.93548V6.64516C1.67969 7.4237 1.98896 8.17035 2.53947 8.72086C3.08998 9.27137 3.83663 9.58064 4.61517 9.58064H7.32485V11.8387H4.38937ZM4.61517 8.22581C4.19596 8.22581 3.79392 8.05927 3.49749 7.76285C3.20106 7.46642 3.03453 7.06437 3.03453 6.64516V3.93548C3.03453 3.51627 3.20106 3.11423 3.49749 2.8178C3.79392 2.52137 4.19596 2.35484 4.61517 2.35484H11.3894C11.8086 2.35484 12.2106 2.52137 12.507 2.8178C12.8035 3.11423 12.97 3.51627 12.97 3.93548V6.64516C12.97 7.06437 12.8035 7.46642 12.507 7.76285C12.2106 8.05927 11.8086 8.22581 11.3894 8.22581H4.61517Z" fill="#F8FAFC"/>
</svg>
